<?xml version="1.0" encoding="utf-8"?>
<!-- Generator: Adobe Illustrator 15.0.0, SVG Export Plug-In . SVG Version: 6.00 Build 0)  -->
<!DOCTYPE svg PUBLIC "-//W3C//DTD SVG 1.1//EN" "http://www.w3.org/Graphics/SVG/1.1/DTD/svg11.dtd">
<svg version="1.1" id="Layer_1" xmlns="http://www.w3.org/2000/svg" xmlns:xlink="http://www.w3.org/1999/xlink" x="0px" y="0px"
	 width="45.35px" height="96.38px" viewBox="0 0 45.35 96.38" enable-background="new 0 0 45.35 96.38" xml:space="preserve">
<g id="BOARD_x5F__x5F_EspruinoPico">
	<path id="pcb" fill="#0F0F0F" d="M43.568,2.672V1.173h-7.783c-0.208,0.524-0.584,0.88-1.018,0.88c-0.433,0-0.809-0.355-1.016-0.88
		h-1.634c-0.207,0.524-0.583,0.88-1.017,0.88c-0.433,0-0.809-0.355-1.017-0.88h-1.383c-0.208,0.524-0.583,0.88-1.017,0.88
		s-0.81-0.355-1.018-0.88h-1.653c-0.208,0.524-0.583,0.88-1.017,0.88s-0.81-0.355-1.018-0.88h-1.383
		c-0.207,0.524-0.583,0.88-1.017,0.88c-0.433,0-0.809-0.355-1.017-0.88h-1.612c-0.208,0.524-0.583,0.88-1.017,0.88
		s-0.81-0.355-1.018-0.88h-1.383c-0.207,0.524-0.583,0.88-1.017,0.88c-0.433,0-0.809-0.355-1.017-0.88H10.85
		c-0.207,0.524-0.583,0.88-1.016,0.88c-0.434,0-0.81-0.355-1.018-0.88H1.048v1.495C1.83,2.939,2.375,3.516,2.375,4.189
		c0,0.672-0.545,1.248-1.327,1.521v4.044c0.782,0.272,1.327,0.849,1.327,1.521s-0.545,1.249-1.327,1.521v4.044
		c0.782,0.272,1.327,0.849,1.327,1.521c0,0.674-0.545,1.25-1.327,1.521v4.045c0.782,0.271,1.327,0.848,1.327,1.521
		s-0.545,1.249-1.327,1.521v4.045c0.782,0.271,1.327,0.848,1.327,1.521c0,0.672-0.545,1.248-1.327,1.521V38.1
		c0.782,0.272,1.327,0.849,1.327,1.521S1.83,40.87,1.048,41.143v4.044c0.782,0.272,1.327,0.849,1.327,1.521
		c0,0.674-0.545,1.25-1.327,1.521v4.045c0.782,0.271,1.327,0.848,1.327,1.521s-0.545,1.249-1.327,1.521v4.045
		c0.782,0.271,1.327,0.848,1.327,1.521c0,0.672-0.545,1.248-1.327,1.521v0.683h2.118c1.192,0,2.177,0.864,2.375,2h0.042v29.633
		h33.334V65.084h0.042c0.198-1.136,1.183-2,2.375-2h2.234v-0.687c-0.777-0.273-1.318-0.847-1.318-1.517s0.541-1.244,1.318-1.518
		v-4.053c-0.777-0.273-1.318-0.847-1.318-1.517s0.541-1.243,1.318-1.517v-4.053c-0.777-0.273-1.318-0.848-1.318-1.518
		s0.541-1.243,1.318-1.517v-4.052c-0.777-0.273-1.318-0.848-1.318-1.518s0.541-1.244,1.318-1.518v-4.052
		c-0.777-0.273-1.318-0.847-1.318-1.517s0.541-1.244,1.318-1.518v-4.053c-0.777-0.273-1.318-0.847-1.318-1.517
		s0.541-1.243,1.318-1.517v-4.053c-0.777-0.273-1.318-0.848-1.318-1.518s0.541-1.243,1.318-1.517v-4.052
		c-0.777-0.273-1.318-0.848-1.318-1.518s0.541-1.244,1.318-1.518V5.706c-0.777-0.273-1.318-0.847-1.318-1.517
		S42.791,2.945,43.568,2.672z M4.879,62.423c-0.805,0-1.458-0.653-1.458-1.458c0-0.807,0.653-1.459,1.458-1.459
		c0.807,0,1.459,0.652,1.459,1.459C6.338,61.77,5.686,62.423,4.879,62.423z M4.879,55.336c-0.805,0-1.458-0.652-1.458-1.458
		s0.653-1.458,1.458-1.458c0.807,0,1.459,0.652,1.459,1.458S5.686,55.336,4.879,55.336z M4.879,48.25
		c-0.805,0-1.458-0.652-1.458-1.459c0-0.805,0.653-1.458,1.458-1.458c0.807,0,1.459,0.653,1.459,1.458
		C6.338,47.598,5.686,48.25,4.879,48.25z M4.879,41.164c-0.805,0-1.458-0.653-1.458-1.459s0.653-1.459,1.458-1.459
		c0.807,0,1.459,0.653,1.459,1.459S5.686,41.164,4.879,41.164z M4.879,34.077c-0.805,0-1.458-0.653-1.458-1.458
		c0-0.807,0.653-1.459,1.458-1.459c0.807,0,1.459,0.652,1.459,1.459C6.338,33.424,5.686,34.077,4.879,34.077z M4.879,26.99
		c-0.805,0-1.458-0.652-1.458-1.458s0.653-1.458,1.458-1.458c0.807,0,1.459,0.652,1.459,1.458S5.686,26.99,4.879,26.99z
		 M4.879,19.904c-0.805,0-1.458-0.652-1.458-1.459c0-0.805,0.653-1.458,1.458-1.458c0.807,0,1.459,0.653,1.459,1.458
		C6.338,19.252,5.686,19.904,4.879,19.904z M4.879,12.818c-0.805,0-1.458-0.653-1.458-1.459S4.074,9.9,4.879,9.9
		c0.807,0,1.459,0.653,1.459,1.459S5.686,12.818,4.879,12.818z M4.879,5.731c-0.805,0-1.458-0.653-1.458-1.458
		c0-0.807,0.653-1.459,1.458-1.459c0.807,0,1.459,0.652,1.459,1.459C6.338,5.078,5.686,5.731,4.879,5.731z M9.958,19.042
		c-0.483,0-0.875-0.392-0.875-0.875s0.392-0.875,0.875-0.875s0.875,0.392,0.875,0.875S10.441,19.042,9.958,19.042z M9.958,15.584
		c-0.483,0-0.875-0.393-0.875-0.875c0-0.484,0.392-0.875,0.875-0.875s0.875,0.391,0.875,0.875
		C10.833,15.191,10.441,15.584,9.958,15.584z M9.958,12.125c-0.483,0-0.875-0.392-0.875-0.875s0.392-0.875,0.875-0.875
		s0.875,0.392,0.875,0.875S10.441,12.125,9.958,12.125z M9.896,4.675c-0.536,0-0.971-0.435-0.971-0.971
		c0-0.535,0.435-0.971,0.971-0.971c0.537,0,0.971,0.436,0.971,0.971C10.867,4.24,10.434,4.675,9.896,4.675z M13.44,4.675
		c-0.536,0-0.971-0.435-0.971-0.971c0-0.535,0.435-0.971,0.971-0.971s0.971,0.436,0.971,0.971C14.411,4.24,13.977,4.675,13.44,4.675
		z M16.984,4.675c-0.537,0-0.971-0.435-0.971-0.971c0-0.535,0.434-0.971,0.971-0.971c0.536,0,0.971,0.436,0.971,0.971
		C17.955,4.24,17.521,4.675,16.984,4.675z M20.527,4.675c-0.537,0-0.971-0.435-0.971-0.971c0-0.535,0.434-0.971,0.971-0.971
		s0.971,0.436,0.971,0.971C21.498,4.24,21.064,4.675,20.527,4.675z M24.07,4.675c-0.536,0-0.971-0.435-0.971-0.971
		c0-0.535,0.435-0.971,0.971-0.971c0.537,0,0.971,0.436,0.971,0.971C25.041,4.24,24.607,4.675,24.07,4.675z M27.614,4.675
		c-0.536,0-0.971-0.435-0.971-0.971c0-0.535,0.435-0.971,0.971-0.971s0.971,0.436,0.971,0.971C28.585,4.24,28.15,4.675,27.614,4.675
		z M31.158,4.675c-0.537,0-0.971-0.435-0.971-0.971c0-0.535,0.434-0.971,0.971-0.971c0.536,0,0.971,0.436,0.971,0.971
		C32.129,4.24,31.694,4.675,31.158,4.675z M34.701,4.675c-0.537,0-0.971-0.435-0.971-0.971c0-0.535,0.434-0.971,0.971-0.971
		s0.971,0.436,0.971,0.971C35.672,4.24,35.238,4.675,34.701,4.675z M39.773,62.423c-0.807,0-1.459-0.653-1.459-1.458
		c0-0.807,0.652-1.459,1.459-1.459c0.805,0,1.458,0.652,1.458,1.459C41.231,61.77,40.578,62.423,39.773,62.423z M39.773,55.336
		c-0.807,0-1.459-0.652-1.459-1.458s0.652-1.458,1.459-1.458c0.805,0,1.458,0.652,1.458,1.458S40.578,55.336,39.773,55.336z
		 M39.773,48.25c-0.807,0-1.459-0.652-1.459-1.459c0-0.805,0.652-1.458,1.459-1.458c0.805,0,1.458,0.653,1.458,1.458
		C41.231,47.598,40.578,48.25,39.773,48.25z M39.773,41.164c-0.807,0-1.459-0.653-1.459-1.459s0.652-1.459,1.459-1.459
		c0.805,0,1.458,0.653,1.458,1.459S40.578,41.164,39.773,41.164z M39.773,34.077c-0.807,0-1.459-0.653-1.459-1.458
		c0-0.807,0.652-1.459,1.459-1.459c0.805,0,1.458,0.652,1.458,1.459C41.231,33.424,40.578,34.077,39.773,34.077z M39.773,26.99
		c-0.807,0-1.459-0.652-1.459-1.458s0.652-1.458,1.459-1.458c0.805,0,1.458,0.652,1.458,1.458S40.578,26.99,39.773,26.99z
		 M39.773,19.904c-0.807,0-1.459-0.652-1.459-1.459c0-0.805,0.652-1.458,1.459-1.458c0.805,0,1.458,0.653,1.458,1.458
		C41.231,19.252,40.578,19.904,39.773,19.904z M39.773,12.818c-0.807,0-1.459-0.653-1.459-1.459S38.967,9.9,39.773,9.9
		c0.805,0,1.458,0.653,1.458,1.459S40.578,12.818,39.773,12.818z M39.773,5.731c-0.807,0-1.459-0.653-1.459-1.458
		c0-0.807,0.652-1.459,1.459-1.459c0.805,0,1.458,0.652,1.458,1.459C41.231,5.078,40.578,5.731,39.773,5.731z"/>
	<g id="labels">
		<path fill="#EDEEEE" d="M36.137,72.52l-0.143,0.448c-0.25-0.068-0.436-0.183-0.557-0.343c-0.122-0.16-0.183-0.362-0.183-0.608
			c0-0.304,0.104-0.554,0.312-0.75c0.208-0.196,0.492-0.294,0.853-0.294c0.382,0,0.678,0.099,0.889,0.296
			c0.211,0.196,0.316,0.455,0.316,0.776c0,0.28-0.083,0.508-0.249,0.683c-0.098,0.104-0.238,0.183-0.422,0.234l-0.109-0.458
			c0.119-0.027,0.213-0.083,0.281-0.169c0.069-0.086,0.104-0.19,0.104-0.313c0-0.17-0.061-0.308-0.183-0.413
			c-0.122-0.106-0.319-0.159-0.593-0.159c-0.289,0-0.495,0.053-0.618,0.156c-0.123,0.104-0.185,0.24-0.185,0.406
			c0,0.123,0.039,0.229,0.117,0.317S35.969,72.481,36.137,72.52z"/>
		<path fill="#EDEEEE" d="M35.294,73.88h1.903V73.2h0.388v1.82h-0.388v-0.678h-1.903V73.88z"/>
		<path fill="#EDEEEE" d="M35.294,75.321h2.291v0.974c0,0.244-0.021,0.423-0.062,0.533c-0.042,0.111-0.114,0.2-0.22,0.267
			s-0.226,0.1-0.361,0.1c-0.172,0-0.313-0.05-0.426-0.151c-0.111-0.101-0.183-0.252-0.212-0.453
			c-0.058,0.101-0.122,0.183-0.191,0.248c-0.07,0.064-0.194,0.152-0.372,0.263l-0.447,0.28v-0.554l0.499-0.334
			c0.178-0.119,0.29-0.2,0.336-0.244c0.047-0.043,0.078-0.09,0.096-0.139s0.025-0.127,0.025-0.232v-0.094h-0.956V75.321z
			 M36.616,75.784v0.342c0,0.222,0.009,0.36,0.028,0.416c0.019,0.055,0.051,0.098,0.097,0.129s0.103,0.047,0.172,0.047
			c0.077,0,0.139-0.021,0.187-0.062s0.077-0.099,0.09-0.174c0.005-0.038,0.008-0.15,0.008-0.338v-0.36H36.616z"/>
		<path fill="#EDEEEE" d="M35.294,78.657v-0.439h1.655c-0.15-0.16-0.262-0.35-0.333-0.567h0.398
			c0.037,0.115,0.108,0.239,0.213,0.374c0.104,0.134,0.227,0.227,0.366,0.276v0.356H35.294z"/>
		<path fill="#EDEEEE" d="M35.294,83.28v-0.5h1.655c-0.15-0.184-0.262-0.398-0.333-0.647h0.398c0.037,0.131,0.108,0.273,0.213,0.426
			c0.104,0.153,0.227,0.259,0.366,0.315v0.406H35.294z"/>
		<path fill="#EDEEEE" d="M35.883,84.035l0.046,0.499c-0.1,0.014-0.178,0.056-0.235,0.126s-0.087,0.151-0.087,0.242
			c0,0.104,0.037,0.193,0.112,0.266c0.074,0.072,0.187,0.108,0.336,0.108c0.141,0,0.246-0.035,0.316-0.107s0.105-0.165,0.105-0.28
			c0-0.144-0.056-0.272-0.167-0.387l0.052-0.406l1.192,0.257v1.323h-0.411v-0.944l-0.389-0.078c0.049,0.111,0.073,0.226,0.073,0.342
			c0,0.222-0.071,0.41-0.213,0.564s-0.325,0.231-0.552,0.231c-0.188,0-0.356-0.062-0.504-0.187c-0.202-0.17-0.304-0.405-0.304-0.707
			c0-0.241,0.057-0.438,0.171-0.59C35.539,84.155,35.691,84.064,35.883,84.035z"/>
		<path fill="#EDEEEE" d="M37.356,87.496c0.158-0.142,0.237-0.34,0.237-0.593s-0.078-0.45-0.234-0.591
			c-0.189-0.172-0.5-0.257-0.931-0.257c-0.439,0-0.745,0.077-0.917,0.233c-0.171,0.155-0.257,0.36-0.257,0.614
			c0,0.253,0.078,0.45,0.234,0.592c0.189,0.171,0.501,0.256,0.935,0.256C36.858,87.751,37.169,87.666,37.356,87.496z M36.997,86.631
			c0.088,0.026,0.148,0.062,0.183,0.11c0.033,0.048,0.051,0.102,0.051,0.162s-0.018,0.114-0.051,0.161
			c-0.034,0.047-0.102,0.086-0.202,0.117c-0.021,0.006-0.061,0.009-0.089,0.015l-0.61-0.612c0.05-0.001,0.088-0.005,0.146-0.005
			C36.692,86.579,36.884,86.597,36.997,86.631z M35.852,87.176c-0.087-0.026-0.147-0.062-0.182-0.11s-0.051-0.102-0.051-0.162
			s0.017-0.114,0.05-0.161s0.101-0.086,0.201-0.116c0.002-0.001,0.007-0.001,0.01-0.002l0.601,0.602
			c-0.021,0-0.034,0.002-0.057,0.002C36.155,87.228,35.965,87.21,35.852,87.176z"/>
		<path fill="#EDEEEE" d="M37.146,88.087h0.408v1.712h-0.319c-0.121-0.142-0.297-0.285-0.524-0.432
			c-0.229-0.146-0.471-0.257-0.728-0.334c-0.257-0.076-0.486-0.114-0.688-0.113v-0.482c0.316,0.009,0.64,0.083,0.969,0.224
			s0.624,0.328,0.883,0.563V88.087z"/>
	</g>
	<g id="components">
		<g id="button_16_">
			<g>
				<rect x="21.209" y="42.709" fill="#8B8E8D" width="2.125" height="2.375"/>
				<rect x="21.209" y="46.959" fill="#8B8E8D" width="2.125" height="2.375"/>
				<rect x="33.334" y="42.709" fill="#8B8E8D" width="2.125" height="2.375"/>
				<rect x="33.334" y="46.959" fill="#8B8E8D" width="2.125" height="2.375"/>
			</g>
			<rect x="22.667" y="42.041" opacity="0.3" fill="#242525" width="10.291" height="7.625"/>
			<rect x="23.209" y="42.041" fill="#BEC1C0" width="10.291" height="7.625"/>
			<g id="btnToggle">
				<path opacity="0.3" fill="#242525" d="M27.948,48.562c1.441,0,2.676-0.66,3.229-1.605v-2.206
					c-0.554-0.944-1.788-1.606-3.229-1.606s-2.676,0.662-3.229,1.606v2.206C25.272,47.902,26.507,48.562,27.948,48.562z"/>
				<g>
					<path fill="#454746" d="M28.417,48.562c1.441,0,2.676-0.66,3.229-1.605v-2.206c-0.554-0.944-1.788-1.606-3.229-1.606
						s-2.676,0.662-3.229,1.606v2.206C25.741,47.902,26.976,48.562,28.417,48.562z"/>
					<path fill="#383A3B" d="M28.417,48.178c1.236,0,2.296-0.566,2.771-1.377v-1.893c-0.475-0.811-1.534-1.379-2.771-1.379
						s-2.296,0.568-2.771,1.379v1.893C26.121,47.611,27.181,48.178,28.417,48.178z"/>
				</g>
			</g>
		</g>
		<g id="chip_13_">
			<g>
				<g>
					<rect x="13.761" y="16.979" fill="#8B8E8D" width="0.729" height="1.251"/>
					<rect x="15.174" y="16.979" fill="#8B8E8D" width="0.729" height="1.251"/>
					<rect x="16.586" y="16.979" fill="#8B8E8D" width="0.729" height="1.251"/>
					<rect x="17.999" y="16.979" fill="#8B8E8D" width="0.729" height="1.251"/>
					<rect x="19.412" y="16.979" fill="#8B8E8D" width="0.729" height="1.251"/>
					<rect x="20.825" y="16.979" fill="#8B8E8D" width="0.729" height="1.251"/>
					<rect x="22.238" y="16.979" fill="#8B8E8D" width="0.729" height="1.251"/>
					<rect x="23.651" y="16.979" fill="#8B8E8D" width="0.729" height="1.251"/>
					<rect x="25.064" y="16.979" fill="#8B8E8D" width="0.729" height="1.251"/>
					<rect x="26.478" y="16.979" fill="#8B8E8D" width="0.729" height="1.251"/>
					<rect x="27.891" y="16.979" fill="#8B8E8D" width="0.729" height="1.251"/>
					<rect x="29.304" y="16.979" fill="#8B8E8D" width="0.729" height="1.251"/>
				</g>
				<g>
					<rect x="11.271" y="19.385" fill="#8B8E8D" width="1.25" height="0.729"/>
					<rect x="11.271" y="20.798" fill="#8B8E8D" width="1.25" height="0.729"/>
					<rect x="11.271" y="22.21" fill="#8B8E8D" width="1.25" height="0.729"/>
					<rect x="11.271" y="23.623" fill="#8B8E8D" width="1.25" height="0.729"/>
					<rect x="11.271" y="25.036" fill="#8B8E8D" width="1.25" height="0.729"/>
					<rect x="11.271" y="26.449" fill="#8B8E8D" width="1.25" height="0.729"/>
					<rect x="11.271" y="27.862" fill="#8B8E8D" width="1.25" height="0.729"/>
					<rect x="11.271" y="29.275" fill="#8B8E8D" width="1.25" height="0.729"/>
					<rect x="11.271" y="30.688" fill="#8B8E8D" width="1.25" height="0.729"/>
					<rect x="11.271" y="32.102" fill="#8B8E8D" width="1.25" height="0.729"/>
					<rect x="11.271" y="33.515" fill="#8B8E8D" width="1.25" height="0.729"/>
					<rect x="11.271" y="34.928" fill="#8B8E8D" width="1.25" height="0.729"/>
				</g>
				<g>
					<rect x="31.271" y="19.385" fill="#8B8E8D" width="1.25" height="0.729"/>
					<rect x="31.271" y="20.798" fill="#8B8E8D" width="1.25" height="0.729"/>
					<rect x="31.271" y="22.21" fill="#8B8E8D" width="1.25" height="0.729"/>
					<rect x="31.271" y="23.623" fill="#8B8E8D" width="1.25" height="0.729"/>
					<rect x="31.271" y="25.036" fill="#8B8E8D" width="1.25" height="0.729"/>
					<rect x="31.271" y="26.449" fill="#8B8E8D" width="1.25" height="0.729"/>
					<rect x="31.271" y="27.862" fill="#8B8E8D" width="1.25" height="0.729"/>
					<rect x="31.271" y="29.275" fill="#8B8E8D" width="1.25" height="0.729"/>
					<rect x="31.271" y="30.688" fill="#8B8E8D" width="1.25" height="0.729"/>
					<rect x="31.271" y="32.102" fill="#8B8E8D" width="1.25" height="0.729"/>
					<rect x="31.271" y="33.515" fill="#8B8E8D" width="1.25" height="0.729"/>
					<rect x="31.271" y="34.928" fill="#8B8E8D" width="1.25" height="0.729"/>
				</g>
				<g>
					<rect x="13.761" y="36.821" fill="#8B8E8D" width="0.729" height="1.251"/>
					<rect x="15.174" y="36.821" fill="#8B8E8D" width="0.729" height="1.251"/>
					<rect x="16.586" y="36.821" fill="#8B8E8D" width="0.729" height="1.251"/>
					<rect x="17.999" y="36.821" fill="#8B8E8D" width="0.729" height="1.251"/>
					<rect x="19.412" y="36.821" fill="#8B8E8D" width="0.729" height="1.251"/>
					<rect x="20.825" y="36.821" fill="#8B8E8D" width="0.729" height="1.251"/>
					<rect x="22.238" y="36.821" fill="#8B8E8D" width="0.729" height="1.251"/>
					<rect x="23.651" y="36.821" fill="#8B8E8D" width="0.729" height="1.251"/>
					<rect x="25.064" y="36.821" fill="#8B8E8D" width="0.729" height="1.251"/>
					<rect x="26.478" y="36.821" fill="#8B8E8D" width="0.729" height="1.251"/>
					<rect x="27.891" y="36.821" fill="#8B8E8D" width="0.729" height="1.251"/>
					<rect x="29.304" y="36.821" fill="#8B8E8D" width="0.729" height="1.251"/>
				</g>
			</g>
			<rect x="12.25" y="18" fill="#242525" width="19.292" height="19.041"/>
			<rect x="11.864" y="18" opacity="0.3" fill="#242525" width="19.292" height="19.041"/>
		</g>
		<g id="component_4_">
			<g>
				<g>
					<rect x="17.599" y="54.938" fill="#8B8E8D" width="1.51" height="2.869"/>
					<g>
						<rect x="18.357" y="55.465" fill="#A3A6A5" width="1.602" height="1.815"/>
						<rect x="19.594" y="55.465" fill="#BEC1C0" width="0.365" height="1.815"/>
					</g>
				</g>
				<g>
					<rect x="24.264" y="53.009" fill="#8B8E8D" width="1.51" height="2.869"/>
					<g>
						<rect x="23.413" y="53.536" fill="#A3A6A5" width="1.602" height="1.815"/>
						<rect x="23.413" y="53.536" fill="#BEC1C0" width="0.365" height="1.815"/>
					</g>
				</g>
				<g>
					<rect x="24.264" y="56.868" fill="#8B8E8D" width="1.51" height="2.869"/>
					<g>
						<rect x="23.413" y="57.396" fill="#A3A6A5" width="1.602" height="1.815"/>
						<rect x="23.413" y="57.396" fill="#BEC1C0" width="0.365" height="1.815"/>
					</g>
				</g>
			</g>
			<rect x="19.844" y="52.662" fill="#242525" width="3.685" height="7.422"/>
		</g>
		<g id="component_3_">
			<g>
				<g>
					<rect x="10.662" y="48.031" fill="#8B8E8D" width="2.869" height="2.198"/>
					<g>
						<rect x="11.189" y="48.791" fill="#A3A6A5" width="1.815" height="2.617"/>
						<rect x="11.189" y="50.811" fill="#BEC1C0" width="1.815" height="0.596"/>
					</g>
				</g>
				<g>
					<rect x="13.164" y="54.938" fill="#8B8E8D" width="2.869" height="2.198"/>
					<g>
						<rect x="13.69" y="53.76" fill="#A3A6A5" width="1.815" height="2.617"/>
						<rect x="13.69" y="53.761" fill="#BEC1C0" width="1.815" height="0.597"/>
					</g>
				</g>
				<g>
					<rect x="8.164" y="54.938" fill="#8B8E8D" width="2.869" height="2.198"/>
					<g>
						<rect x="8.69" y="53.76" fill="#A3A6A5" width="1.815" height="2.617"/>
						<rect x="8.69" y="53.761" fill="#BEC1C0" width="1.815" height="0.597"/>
					</g>
				</g>
			</g>
			<rect x="7.996" y="51.154" fill="#242525" width="8.291" height="2.835"/>
		</g>
		<g id="component_2_">
			<rect x="26.771" y="53.042" opacity="0.3" fill="#242525" width="4.666" height="9.333"/>
			<rect x="27.084" y="53.042" fill="#EAC034" width="4.666" height="9.333"/>
			<rect x="27.084" y="60.042" fill="#CB711E" width="4.666" height="2.333"/>
		</g>
		<g id="component_1_">
			<g>
				<g>
					<rect x="14.927" y="61.17" fill="#8B8E8D" width="2.197" height="2.869"/>
					<g>
						<rect x="15.686" y="61.696" fill="#A3A6A5" width="2.617" height="1.815"/>
						<rect x="17.705" y="61.696" fill="#BEC1C0" width="0.597" height="1.815"/>
					</g>
				</g>
				<g>
					<rect x="23.279" y="61.17" fill="#8B8E8D" width="2.197" height="2.869"/>
					<g>
						<rect x="22.101" y="61.697" fill="#A3A6A5" width="2.617" height="1.816"/>
						<rect x="22.102" y="61.697" fill="#BEC1C0" width="0.597" height="1.816"/>
					</g>
				</g>
			</g>
			<rect x="17.956" y="61.203" fill="#242525" width="4.535" height="2.756"/>
		</g>
		<g id="component">
			<path opacity="0.3" fill="#242525" d="M18.5,10.715c0,0.312,0.254,0.566,0.566,0.566h8.211c0.312,0,0.566-0.254,0.566-0.566
				V7.879c0-0.312-0.254-0.566-0.566-0.566h-8.211c-0.312,0-0.566,0.254-0.566,0.566V10.715z"/>
			<path fill="#A3A6A5" d="M19.078,10.715c0,0.312,0.254,0.566,0.566,0.566h8.211c0.312,0,0.566-0.254,0.566-0.566V7.879
				c0-0.312-0.254-0.566-0.566-0.566h-8.211c-0.312,0-0.566,0.254-0.566,0.566V10.715z"/>
		</g>
		<g id="led_15_">
			<rect x="13.594" y="44.651" fill="#8B8E8D" width="4.125" height="1.571"/>
			<rect id="ledBulb_1_" x="14.713" y="44.566" fill="#BEC1C0" width="1.885" height="1.742"/>
		</g>
		<g id="led_14_">
			<rect x="8.344" y="44.651" fill="#8B8E8D" width="4.125" height="1.571"/>
			<rect id="ledBulb" x="9.463" y="44.566" fill="#BEC1C0" width="1.885" height="1.742"/>
		</g>
	</g>
	<g id="pins">
		<rect id="PIN_x5F__x5F_usbV" x="29.438" y="70.5" fill="#FBD30B" width="4.312" height="22.062"/>
		<rect id="PIN_x5F__x5F_usbGnd" x="10" y="70.5" fill="#FBD30B" width="4.312" height="22.062"/>
		<rect id="PIN_x5F__x5F_usbD_x2B_" x="16.938" y="70.5" fill="#FBD30B" width="4.312" height="16.438"/>
		<rect id="PIN_x5F__x5F_usbD-" x="22.562" y="70.5" fill="#FBD30B" width="4.312" height="16.438"/>
		<path id="PIN_x5F__x5F_a8" fill="#FBD30B" d="M42.326,3.78c0.022-0.063,0.048-0.126,0.08-0.187
			c0.021-0.039,0.042-0.078,0.065-0.115c0.032-0.05,0.069-0.097,0.107-0.144c0.033-0.04,0.063-0.081,0.101-0.12
			c0.022-0.022,0.05-0.043,0.073-0.064c0.113-0.104,0.241-0.197,0.384-0.279c0.016-0.01,0.029-0.02,0.046-0.027
			c0.082-0.045,0.168-0.084,0.258-0.121c0.019-0.008,0.036-0.015,0.055-0.021c0.095-0.037,0.192-0.069,0.294-0.096
			c0.001,0,0.001-0.001,0.002-0.001V2.086h-3.254h-0.951H39.01L37.586,3.51v1.527L39.01,6.46h0.576h0.951h3.254V5.773
			c-0.001,0-0.001,0-0.002,0c-0.102-0.027-0.199-0.06-0.294-0.096c-0.019-0.008-0.036-0.015-0.055-0.021
			c-0.09-0.037-0.176-0.076-0.258-0.121c-0.017-0.009-0.03-0.02-0.046-0.027c-0.143-0.083-0.271-0.176-0.384-0.28
			c-0.023-0.022-0.051-0.042-0.073-0.064c-0.037-0.038-0.067-0.079-0.101-0.12c-0.038-0.047-0.075-0.094-0.107-0.144
			c-0.023-0.038-0.045-0.075-0.065-0.114c-0.032-0.061-0.058-0.123-0.08-0.188c-0.012-0.033-0.024-0.066-0.033-0.1
			c-0.026-0.101-0.043-0.203-0.043-0.309c0-0.106,0.017-0.209,0.043-0.309C42.302,3.846,42.314,3.814,42.326,3.78z M39.773,5.731
			c-0.807,0-1.459-0.653-1.459-1.458c0-0.807,0.652-1.459,1.459-1.459c0.805,0,1.458,0.652,1.458,1.459
			C41.231,5.078,40.578,5.731,39.773,5.731z"/>
		<path id="PIN_x5F__x5F_b7" fill="#FBD30B" d="M42.326,10.867c0.022-0.064,0.048-0.127,0.08-0.188
			c0.021-0.039,0.042-0.077,0.065-0.115c0.032-0.049,0.069-0.096,0.107-0.143c0.033-0.041,0.063-0.082,0.101-0.121
			c0.022-0.021,0.05-0.042,0.073-0.064c0.113-0.104,0.241-0.197,0.384-0.279c0.016-0.009,0.029-0.02,0.046-0.027
			c0.082-0.045,0.168-0.084,0.258-0.121c0.019-0.008,0.036-0.014,0.055-0.021c0.095-0.037,0.192-0.068,0.294-0.096
			c0.001,0,0.001,0,0.002,0v-0.52h-3.254h-0.951H39.01l-1.424,1.424v1.527l1.424,1.424h0.576h0.951h3.254v-0.688
			c-0.001,0-0.001,0-0.002,0c-0.102-0.027-0.199-0.059-0.294-0.096c-0.019-0.008-0.036-0.014-0.055-0.021
			c-0.09-0.037-0.176-0.076-0.258-0.121c-0.017-0.008-0.03-0.019-0.046-0.027c-0.143-0.082-0.271-0.176-0.384-0.279
			c-0.023-0.022-0.051-0.043-0.073-0.064c-0.037-0.039-0.067-0.08-0.101-0.121c-0.038-0.047-0.075-0.094-0.107-0.143
			c-0.023-0.038-0.045-0.076-0.065-0.115c-0.032-0.061-0.058-0.123-0.08-0.188c-0.012-0.033-0.024-0.065-0.033-0.1
			c-0.026-0.1-0.043-0.203-0.043-0.309s0.017-0.209,0.043-0.309C42.302,10.933,42.314,10.9,42.326,10.867z M39.773,12.818
			c-0.807,0-1.459-0.653-1.459-1.459S38.967,9.9,39.773,9.9c0.805,0,1.458,0.653,1.458,1.459S40.578,12.818,39.773,12.818z"/>
		<path id="PIN_x5F__x5F_b6" fill="#FBD30B" d="M42.326,17.953c0.022-0.064,0.048-0.127,0.08-0.188
			c0.021-0.039,0.042-0.076,0.065-0.114c0.032-0.05,0.069-0.097,0.107-0.144c0.033-0.041,0.063-0.082,0.101-0.12
			c0.022-0.022,0.05-0.042,0.073-0.064c0.113-0.104,0.241-0.197,0.384-0.28c0.016-0.008,0.029-0.019,0.046-0.027
			c0.082-0.045,0.168-0.084,0.258-0.121c0.019-0.007,0.036-0.014,0.055-0.021c0.095-0.036,0.192-0.068,0.294-0.096
			c0.001,0,0.001,0,0.002,0v-0.519h-3.254h-0.951H39.01l-1.424,1.423v1.527l1.424,1.424h0.576h0.951h3.254v-0.687
			c-0.001,0-0.001-0.001-0.002-0.001c-0.102-0.026-0.199-0.059-0.294-0.096c-0.019-0.007-0.036-0.014-0.055-0.021
			c-0.09-0.037-0.176-0.076-0.258-0.121c-0.017-0.008-0.03-0.018-0.046-0.027c-0.143-0.082-0.271-0.176-0.384-0.279
			c-0.023-0.021-0.051-0.042-0.073-0.064c-0.037-0.039-0.067-0.08-0.101-0.12c-0.038-0.047-0.075-0.094-0.107-0.144
			c-0.023-0.037-0.045-0.076-0.065-0.115c-0.032-0.061-0.058-0.123-0.08-0.187c-0.012-0.034-0.024-0.065-0.033-0.101
			c-0.026-0.1-0.043-0.202-0.043-0.309c0-0.105,0.017-0.208,0.043-0.309C42.302,18.02,42.314,17.986,42.326,17.953z M39.773,19.904
			c-0.807,0-1.459-0.652-1.459-1.459c0-0.805,0.652-1.458,1.459-1.458c0.805,0,1.458,0.653,1.458,1.458
			C41.231,19.252,40.578,19.904,39.773,19.904z"/>
		<path id="PIN_x5F__x5F_b5" fill="#FBD30B" d="M42.326,25.039c0.022-0.063,0.048-0.126,0.08-0.187
			c0.021-0.039,0.042-0.077,0.065-0.114c0.032-0.051,0.069-0.098,0.107-0.145c0.033-0.04,0.063-0.081,0.101-0.119
			c0.022-0.023,0.05-0.043,0.073-0.064c0.113-0.104,0.241-0.197,0.384-0.28c0.016-0.009,0.029-0.019,0.046-0.027
			c0.082-0.045,0.168-0.084,0.258-0.121c0.019-0.007,0.036-0.015,0.055-0.021c0.095-0.036,0.192-0.069,0.294-0.096
			c0.001,0,0.001-0.001,0.002-0.001v-0.518h-3.254h-0.951H39.01l-1.424,1.423v1.527l1.424,1.423h0.576h0.951h3.254v-0.686
			c-0.001,0-0.001-0.001-0.002-0.001c-0.102-0.026-0.199-0.06-0.294-0.096c-0.019-0.007-0.036-0.015-0.055-0.021
			c-0.09-0.037-0.176-0.076-0.258-0.121c-0.017-0.009-0.03-0.019-0.046-0.027c-0.143-0.083-0.271-0.176-0.384-0.28
			c-0.023-0.021-0.051-0.041-0.073-0.064c-0.037-0.038-0.067-0.079-0.101-0.119c-0.038-0.047-0.075-0.094-0.107-0.145
			c-0.023-0.037-0.045-0.075-0.065-0.114c-0.032-0.061-0.058-0.123-0.08-0.187c-0.012-0.034-0.024-0.066-0.033-0.101
			c-0.026-0.101-0.043-0.202-0.043-0.309s0.017-0.208,0.043-0.309C42.302,25.105,42.314,25.073,42.326,25.039z M39.773,26.99
			c-0.807,0-1.459-0.652-1.459-1.458s0.652-1.458,1.459-1.458c0.805,0,1.458,0.652,1.458,1.458S40.578,26.99,39.773,26.99z"/>
		<path id="PIN_x5F__x5F_b4" fill="#FBD30B" d="M42.326,32.126c0.022-0.063,0.048-0.126,0.08-0.187
			c0.021-0.039,0.042-0.078,0.065-0.115c0.032-0.05,0.069-0.097,0.107-0.144c0.033-0.04,0.063-0.081,0.101-0.12
			c0.022-0.022,0.05-0.043,0.073-0.064c0.113-0.104,0.241-0.197,0.384-0.279c0.016-0.01,0.029-0.02,0.046-0.027
			c0.082-0.045,0.168-0.084,0.258-0.121c0.019-0.008,0.036-0.015,0.055-0.021c0.095-0.037,0.192-0.069,0.294-0.096
			c0.001,0,0.001-0.001,0.002-0.001v-0.519h-3.254h-0.951H39.01l-1.424,1.424v1.527l1.424,1.423h0.576h0.951h3.254v-0.687
			c-0.001,0-0.001,0-0.002,0c-0.102-0.027-0.199-0.06-0.294-0.096c-0.019-0.008-0.036-0.015-0.055-0.021
			c-0.09-0.037-0.176-0.076-0.258-0.121c-0.017-0.009-0.03-0.02-0.046-0.027c-0.143-0.083-0.271-0.176-0.384-0.28
			c-0.023-0.022-0.051-0.042-0.073-0.064c-0.037-0.038-0.067-0.079-0.101-0.12c-0.038-0.047-0.075-0.094-0.107-0.144
			c-0.023-0.038-0.045-0.075-0.065-0.114c-0.032-0.061-0.058-0.123-0.08-0.188c-0.012-0.033-0.024-0.066-0.033-0.1
			c-0.026-0.101-0.043-0.203-0.043-0.309c0-0.106,0.017-0.209,0.043-0.309C42.302,32.191,42.314,32.16,42.326,32.126z
			 M39.773,34.077c-0.807,0-1.459-0.653-1.459-1.458c0-0.807,0.652-1.459,1.459-1.459c0.805,0,1.458,0.652,1.458,1.459
			C41.231,33.424,40.578,34.077,39.773,34.077z"/>
		<path id="PIN_x5F__x5F_b3" fill="#FBD30B" d="M42.326,39.213c0.022-0.064,0.048-0.127,0.08-0.188
			c0.021-0.039,0.042-0.077,0.065-0.115c0.032-0.049,0.069-0.096,0.107-0.143c0.033-0.041,0.063-0.082,0.101-0.121
			c0.022-0.021,0.05-0.042,0.073-0.064c0.113-0.104,0.241-0.197,0.384-0.279c0.016-0.009,0.029-0.02,0.046-0.027
			c0.082-0.045,0.168-0.084,0.258-0.121c0.019-0.008,0.036-0.014,0.055-0.021c0.095-0.037,0.192-0.068,0.294-0.096
			c0.001,0,0.001,0,0.002,0v-0.52h-3.254h-0.951H39.01l-1.424,1.424v1.527l1.424,1.424h0.576h0.951h3.254v-0.688
			c-0.001,0-0.001,0-0.002,0c-0.102-0.027-0.199-0.059-0.294-0.096c-0.019-0.008-0.036-0.014-0.055-0.021
			c-0.09-0.037-0.176-0.076-0.258-0.121c-0.017-0.008-0.03-0.019-0.046-0.027c-0.143-0.082-0.271-0.176-0.384-0.279
			c-0.023-0.022-0.051-0.043-0.073-0.064c-0.037-0.039-0.067-0.08-0.101-0.121c-0.038-0.047-0.075-0.094-0.107-0.143
			c-0.023-0.038-0.045-0.076-0.065-0.115c-0.032-0.061-0.058-0.123-0.08-0.188c-0.012-0.033-0.024-0.065-0.033-0.1
			c-0.026-0.1-0.043-0.203-0.043-0.309s0.017-0.209,0.043-0.309C42.302,39.278,42.314,39.246,42.326,39.213z M39.773,41.164
			c-0.807,0-1.459-0.653-1.459-1.459s0.652-1.459,1.459-1.459c0.805,0,1.458,0.653,1.458,1.459S40.578,41.164,39.773,41.164z"/>
		<path id="PIN_x5F__x5F_3.3_1_" fill="#FBD30B" d="M42.326,46.299c0.022-0.064,0.048-0.127,0.08-0.188
			c0.021-0.039,0.042-0.076,0.065-0.114c0.032-0.05,0.069-0.097,0.107-0.144c0.033-0.041,0.063-0.082,0.101-0.12
			c0.022-0.022,0.05-0.042,0.073-0.064c0.113-0.104,0.241-0.197,0.384-0.28c0.016-0.008,0.029-0.019,0.046-0.027
			c0.082-0.045,0.168-0.084,0.258-0.121c0.019-0.007,0.036-0.014,0.055-0.021c0.095-0.036,0.192-0.068,0.294-0.096
			c0.001,0,0.001,0,0.002,0v-0.519h-3.254h-0.951H39.01l-1.424,1.423v1.527l1.424,1.424h0.576h0.951h3.254v-0.687
			c-0.001,0-0.001-0.001-0.002-0.001c-0.102-0.026-0.199-0.059-0.294-0.096c-0.019-0.007-0.036-0.014-0.055-0.021
			c-0.09-0.037-0.176-0.076-0.258-0.121c-0.017-0.008-0.03-0.018-0.046-0.027c-0.143-0.082-0.271-0.176-0.384-0.279
			c-0.023-0.021-0.051-0.042-0.073-0.064c-0.037-0.039-0.067-0.08-0.101-0.12c-0.038-0.047-0.075-0.094-0.107-0.144
			c-0.023-0.037-0.045-0.076-0.065-0.115c-0.032-0.061-0.058-0.123-0.08-0.187c-0.012-0.034-0.024-0.065-0.033-0.101
			c-0.026-0.1-0.043-0.202-0.043-0.309c0-0.105,0.017-0.208,0.043-0.309C42.302,46.365,42.314,46.332,42.326,46.299z M39.773,48.25
			c-0.807,0-1.459-0.652-1.459-1.459c0-0.805,0.652-1.458,1.459-1.458c0.805,0,1.458,0.653,1.458,1.458
			C41.231,47.598,40.578,48.25,39.773,48.25z"/>
		<path id="PIN_x5F__x5F_vBat" fill="#FBD30B" d="M42.326,53.385c0.022-0.063,0.048-0.126,0.08-0.187
			c0.021-0.039,0.042-0.077,0.065-0.114c0.032-0.051,0.069-0.098,0.107-0.145c0.033-0.04,0.063-0.081,0.101-0.119
			c0.022-0.023,0.05-0.043,0.073-0.064c0.113-0.104,0.241-0.197,0.384-0.28c0.016-0.009,0.029-0.019,0.046-0.027
			c0.082-0.045,0.168-0.084,0.258-0.121c0.019-0.007,0.036-0.015,0.055-0.021c0.095-0.036,0.192-0.069,0.294-0.096
			c0.001,0,0.001-0.001,0.002-0.001v-0.518h-3.254h-0.951H39.01l-1.424,1.423v1.527l1.424,1.423h0.576h0.951h3.254v-0.686
			c-0.001,0-0.001-0.001-0.002-0.001c-0.102-0.026-0.199-0.06-0.294-0.096c-0.019-0.007-0.036-0.015-0.055-0.021
			c-0.09-0.037-0.176-0.076-0.258-0.121c-0.017-0.009-0.03-0.019-0.046-0.027c-0.143-0.083-0.271-0.176-0.384-0.28
			c-0.023-0.021-0.051-0.041-0.073-0.064c-0.037-0.038-0.067-0.079-0.101-0.119c-0.038-0.047-0.075-0.094-0.107-0.145
			c-0.023-0.037-0.045-0.075-0.065-0.114c-0.032-0.061-0.058-0.123-0.08-0.187c-0.012-0.034-0.024-0.066-0.033-0.101
			c-0.026-0.101-0.043-0.202-0.043-0.309s0.017-0.208,0.043-0.309C42.302,53.451,42.314,53.419,42.326,53.385z M39.773,55.336
			c-0.807,0-1.459-0.652-1.459-1.458s0.652-1.458,1.459-1.458c0.805,0,1.458,0.652,1.458,1.458S40.578,55.336,39.773,55.336z"/>
		<path id="PIN_x5F__x5F_gnd_1_" fill="#FBD30B" d="M42.326,60.472c0.022-0.063,0.048-0.126,0.08-0.187
			c0.021-0.039,0.042-0.078,0.065-0.115c0.032-0.05,0.069-0.097,0.107-0.144c0.033-0.04,0.063-0.081,0.101-0.12
			c0.022-0.022,0.05-0.043,0.073-0.064c0.113-0.104,0.241-0.197,0.384-0.279c0.016-0.01,0.029-0.02,0.046-0.027
			c0.082-0.045,0.168-0.084,0.258-0.121c0.019-0.008,0.036-0.015,0.055-0.021c0.095-0.037,0.192-0.069,0.294-0.096
			c0.001,0,0.001-0.001,0.002-0.001v-0.519h-3.254h-0.951H39.01l-1.424,1.424v1.527l1.424,1.423h0.576h0.951h3.254v-0.687
			c-0.001,0-0.001,0-0.002,0c-0.102-0.027-0.199-0.06-0.294-0.096c-0.019-0.008-0.036-0.015-0.055-0.021
			c-0.09-0.037-0.176-0.076-0.258-0.121c-0.017-0.009-0.03-0.02-0.046-0.027c-0.143-0.083-0.271-0.176-0.384-0.28
			c-0.023-0.022-0.051-0.042-0.073-0.064c-0.037-0.038-0.067-0.079-0.101-0.12c-0.038-0.047-0.075-0.094-0.107-0.144
			c-0.023-0.038-0.045-0.075-0.065-0.114c-0.032-0.061-0.058-0.123-0.08-0.188c-0.012-0.033-0.024-0.066-0.033-0.1
			c-0.026-0.101-0.043-0.203-0.043-0.309c0-0.106,0.017-0.209,0.043-0.309C42.302,60.537,42.314,60.506,42.326,60.472z
			 M39.773,62.423c-0.807,0-1.459-0.653-1.459-1.458c0-0.807,0.652-1.459,1.459-1.459c0.805,0,1.458,0.652,1.458,1.459
			C41.231,61.77,40.578,62.423,39.773,62.423z"/>
		<path id="PIN_x5F__x5F_a5" fill="#FBD30B" d="M5.643,2.086H5.066H4.115H0.861v0.519c0.001,0,0.001,0.001,0.002,0.001
			c0.102,0.026,0.199,0.059,0.294,0.096c0.019,0.007,0.036,0.014,0.055,0.021C1.302,2.76,1.388,2.799,1.47,2.844
			C1.486,2.852,1.5,2.861,1.516,2.871C1.658,2.953,1.786,3.047,1.899,3.15C1.923,3.172,1.95,3.192,1.973,3.215
			c0.037,0.039,0.067,0.08,0.101,0.12c0.038,0.047,0.075,0.094,0.107,0.144c0.023,0.037,0.045,0.076,0.065,0.115
			c0.032,0.061,0.058,0.123,0.08,0.187c0.012,0.034,0.024,0.065,0.033,0.101c0.026,0.1,0.043,0.202,0.043,0.309
			c0,0.105-0.017,0.208-0.043,0.309c-0.009,0.033-0.021,0.066-0.033,0.1c-0.022,0.064-0.048,0.127-0.08,0.188
			C2.226,4.824,2.204,4.861,2.181,4.899c-0.032,0.05-0.069,0.097-0.107,0.144C2.04,5.084,2.01,5.125,1.973,5.163
			C1.95,5.186,1.923,5.205,1.899,5.228c-0.113,0.104-0.241,0.197-0.384,0.28C1.5,5.516,1.486,5.526,1.47,5.535
			C1.388,5.58,1.302,5.619,1.212,5.656C1.193,5.663,1.176,5.67,1.157,5.678C1.062,5.714,0.965,5.746,0.863,5.773
			c-0.001,0-0.001,0-0.002,0V6.46h3.254h0.951h0.576l1.424-1.423V3.51L5.643,2.086z M4.879,5.731c-0.805,0-1.458-0.653-1.458-1.458
			c0-0.807,0.653-1.459,1.458-1.459c0.807,0,1.459,0.652,1.459,1.459C6.338,5.078,5.686,5.731,4.879,5.731z"/>
		<path id="PIN_x5F__x5F_a6" fill="#FBD30B" d="M5.643,9.172H5.066H4.115H0.861v0.52c0.001,0,0.001,0,0.002,0
			C0.965,9.719,1.062,9.75,1.157,9.787c0.019,0.008,0.036,0.014,0.055,0.021C1.302,9.846,1.388,9.885,1.47,9.93
			C1.486,9.938,1.5,9.948,1.516,9.957c0.143,0.082,0.271,0.176,0.384,0.279c0.023,0.022,0.051,0.043,0.073,0.064
			c0.037,0.039,0.067,0.08,0.101,0.121c0.038,0.047,0.075,0.094,0.107,0.143c0.023,0.038,0.045,0.076,0.065,0.115
			c0.032,0.061,0.058,0.123,0.08,0.188c0.012,0.033,0.024,0.065,0.033,0.1c0.026,0.1,0.043,0.203,0.043,0.309
			s-0.017,0.209-0.043,0.309c-0.009,0.034-0.021,0.066-0.033,0.1c-0.022,0.064-0.048,0.127-0.08,0.188
			c-0.021,0.039-0.042,0.077-0.065,0.115c-0.032,0.049-0.069,0.096-0.107,0.143C2.04,12.17,2.01,12.211,1.973,12.25
			c-0.022,0.021-0.05,0.042-0.073,0.064c-0.113,0.104-0.241,0.197-0.384,0.279c-0.016,0.009-0.029,0.02-0.046,0.027
			c-0.082,0.045-0.168,0.084-0.258,0.121c-0.019,0.008-0.036,0.014-0.055,0.021c-0.095,0.037-0.192,0.068-0.294,0.096
			c-0.001,0-0.001,0-0.002,0v0.688h3.254h0.951h0.576l1.424-1.424v-1.527L5.643,9.172z M4.879,12.818
			c-0.805,0-1.458-0.653-1.458-1.459S4.074,9.9,4.879,9.9c0.807,0,1.459,0.653,1.459,1.459S5.686,12.818,4.879,12.818z"/>
		<path id="PIN_x5F__x5F_a7" fill="#FBD30B" d="M5.643,16.259H5.066H4.115H0.861v0.519c0.001,0,0.001,0,0.002,0
			c0.102,0.027,0.199,0.06,0.294,0.096c0.019,0.008,0.036,0.015,0.055,0.021c0.09,0.037,0.176,0.076,0.258,0.121
			c0.017,0.009,0.03,0.02,0.046,0.027c0.143,0.083,0.271,0.176,0.384,0.28c0.023,0.022,0.051,0.042,0.073,0.064
			c0.037,0.038,0.067,0.079,0.101,0.12c0.038,0.047,0.075,0.094,0.107,0.144c0.023,0.038,0.045,0.075,0.065,0.114
			c0.032,0.061,0.058,0.123,0.08,0.188c0.012,0.033,0.024,0.066,0.033,0.1c0.026,0.101,0.043,0.203,0.043,0.309
			c0,0.106-0.017,0.209-0.043,0.309c-0.009,0.035-0.021,0.066-0.033,0.101c-0.022,0.063-0.048,0.126-0.08,0.187
			c-0.021,0.039-0.042,0.078-0.065,0.115c-0.032,0.05-0.069,0.097-0.107,0.144c-0.033,0.04-0.063,0.081-0.101,0.12
			c-0.022,0.022-0.05,0.043-0.073,0.064c-0.113,0.104-0.241,0.197-0.384,0.279c-0.016,0.01-0.029,0.02-0.046,0.027
			c-0.082,0.045-0.168,0.084-0.258,0.121c-0.019,0.008-0.036,0.015-0.055,0.021c-0.095,0.037-0.192,0.069-0.294,0.096
			c-0.001,0-0.001,0.001-0.002,0.001v0.687h3.254h0.951h0.576l1.424-1.424v-1.527L5.643,16.259z M4.879,19.904
			c-0.805,0-1.458-0.652-1.458-1.459c0-0.805,0.653-1.458,1.458-1.458c0.807,0,1.459,0.653,1.459,1.458
			C6.338,19.252,5.686,19.904,4.879,19.904z"/>
		<path id="PIN_x5F__x5F_b1" fill="#FBD30B" d="M5.643,23.346H5.066H4.115H0.861v0.518c0.001,0,0.001,0.001,0.002,0.001
			c0.102,0.026,0.199,0.06,0.294,0.096c0.019,0.007,0.036,0.015,0.055,0.021c0.09,0.037,0.176,0.076,0.258,0.121
			c0.017,0.009,0.03,0.019,0.046,0.027c0.143,0.083,0.271,0.176,0.384,0.28c0.023,0.021,0.051,0.041,0.073,0.064
			c0.037,0.038,0.067,0.079,0.101,0.119c0.038,0.047,0.075,0.094,0.107,0.145c0.023,0.037,0.045,0.075,0.065,0.114
			c0.032,0.061,0.058,0.123,0.08,0.187c0.012,0.034,0.024,0.066,0.033,0.101c0.026,0.101,0.043,0.202,0.043,0.309
			s-0.017,0.208-0.043,0.309c-0.009,0.034-0.021,0.066-0.033,0.101c-0.022,0.063-0.048,0.126-0.08,0.187
			c-0.021,0.039-0.042,0.077-0.065,0.114c-0.032,0.051-0.069,0.098-0.107,0.145c-0.033,0.04-0.063,0.081-0.101,0.119
			c-0.022,0.023-0.05,0.043-0.073,0.064c-0.113,0.104-0.241,0.197-0.384,0.28C1.5,26.775,1.486,26.785,1.47,26.794
			c-0.082,0.045-0.168,0.084-0.258,0.121c-0.019,0.007-0.036,0.015-0.055,0.021c-0.095,0.036-0.192,0.069-0.294,0.096
			c-0.001,0-0.001,0.001-0.002,0.001v0.686h3.254h0.951h0.576l1.424-1.423v-1.527L5.643,23.346z M4.879,26.99
			c-0.805,0-1.458-0.652-1.458-1.458s0.653-1.458,1.458-1.458c0.807,0,1.459,0.652,1.459,1.458S5.686,26.99,4.879,26.99z"/>
		<path id="PIN_x5F__x5F_b10" fill="#FBD30B" d="M5.643,30.432H5.066H4.115H0.861v0.519c0.001,0,0.001,0.001,0.002,0.001
			c0.102,0.026,0.199,0.059,0.294,0.096c0.019,0.007,0.036,0.014,0.055,0.021c0.09,0.037,0.176,0.076,0.258,0.121
			c0.017,0.008,0.03,0.018,0.046,0.027c0.143,0.082,0.271,0.176,0.384,0.279c0.023,0.021,0.051,0.042,0.073,0.064
			c0.037,0.039,0.067,0.08,0.101,0.12c0.038,0.047,0.075,0.094,0.107,0.144c0.023,0.037,0.045,0.076,0.065,0.115
			c0.032,0.061,0.058,0.123,0.08,0.187c0.012,0.034,0.024,0.065,0.033,0.101c0.026,0.1,0.043,0.202,0.043,0.309
			c0,0.105-0.017,0.208-0.043,0.309c-0.009,0.033-0.021,0.066-0.033,0.1c-0.022,0.064-0.048,0.127-0.08,0.188
			c-0.021,0.039-0.042,0.076-0.065,0.114c-0.032,0.05-0.069,0.097-0.107,0.144c-0.033,0.041-0.063,0.082-0.101,0.12
			c-0.022,0.022-0.05,0.042-0.073,0.064c-0.113,0.104-0.241,0.197-0.384,0.28C1.5,33.861,1.486,33.872,1.47,33.881
			c-0.082,0.045-0.168,0.084-0.258,0.121c-0.019,0.007-0.036,0.014-0.055,0.021c-0.095,0.036-0.192,0.068-0.294,0.096
			c-0.001,0-0.001,0-0.002,0v0.687h3.254h0.951h0.576l1.424-1.423v-1.527L5.643,30.432z M4.879,34.077
			c-0.805,0-1.458-0.653-1.458-1.458c0-0.807,0.653-1.459,1.458-1.459c0.807,0,1.459,0.652,1.459,1.459
			C6.338,33.424,5.686,34.077,4.879,34.077z"/>
		<path id="PIN_x5F__x5F_b13" fill="#FBD30B" d="M5.643,37.518H5.066H4.115H0.861v0.52c0.001,0,0.001,0,0.002,0
			c0.102,0.027,0.199,0.059,0.294,0.096c0.019,0.008,0.036,0.014,0.055,0.021c0.09,0.037,0.176,0.076,0.258,0.121
			c0.017,0.008,0.03,0.019,0.046,0.027c0.143,0.082,0.271,0.176,0.384,0.279c0.023,0.022,0.051,0.043,0.073,0.064
			c0.037,0.039,0.067,0.08,0.101,0.121c0.038,0.047,0.075,0.094,0.107,0.143c0.023,0.038,0.045,0.076,0.065,0.115
			c0.032,0.061,0.058,0.123,0.08,0.188c0.012,0.033,0.024,0.065,0.033,0.1c0.026,0.1,0.043,0.203,0.043,0.309
			S2.386,39.83,2.359,39.93c-0.009,0.034-0.021,0.066-0.033,0.1c-0.022,0.064-0.048,0.127-0.08,0.188
			c-0.021,0.039-0.042,0.077-0.065,0.115c-0.032,0.049-0.069,0.096-0.107,0.143c-0.033,0.041-0.063,0.082-0.101,0.121
			c-0.022,0.021-0.05,0.042-0.073,0.064c-0.113,0.104-0.241,0.197-0.384,0.279c-0.016,0.009-0.029,0.02-0.046,0.027
			c-0.082,0.045-0.168,0.084-0.258,0.121c-0.019,0.008-0.036,0.014-0.055,0.021c-0.095,0.037-0.192,0.068-0.294,0.096
			c-0.001,0-0.001,0-0.002,0v0.688h3.254h0.951h0.576l1.424-1.424v-1.527L5.643,37.518z M4.879,41.164
			c-0.805,0-1.458-0.653-1.458-1.459s0.653-1.459,1.458-1.459c0.807,0,1.459,0.653,1.459,1.459S5.686,41.164,4.879,41.164z"/>
		<path id="PIN_x5F__x5F_b14" fill="#FBD30B" d="M5.643,44.604H5.066H4.115H0.861v0.519c0.001,0,0.001,0,0.002,0
			c0.102,0.027,0.199,0.06,0.294,0.096c0.019,0.008,0.036,0.015,0.055,0.021c0.09,0.037,0.176,0.076,0.258,0.121
			c0.017,0.009,0.03,0.02,0.046,0.027c0.143,0.083,0.271,0.176,0.384,0.28c0.023,0.022,0.051,0.042,0.073,0.064
			c0.037,0.038,0.067,0.079,0.101,0.12c0.038,0.047,0.075,0.094,0.107,0.144c0.023,0.038,0.045,0.075,0.065,0.114
			c0.032,0.061,0.058,0.123,0.08,0.188c0.012,0.033,0.024,0.066,0.033,0.1c0.026,0.101,0.043,0.203,0.043,0.309
			c0,0.106-0.017,0.209-0.043,0.309c-0.009,0.035-0.021,0.066-0.033,0.101c-0.022,0.063-0.048,0.126-0.08,0.187
			c-0.021,0.039-0.042,0.078-0.065,0.115c-0.032,0.05-0.069,0.097-0.107,0.144c-0.033,0.04-0.063,0.081-0.101,0.12
			c-0.022,0.022-0.05,0.043-0.073,0.064c-0.113,0.104-0.241,0.197-0.384,0.279c-0.016,0.01-0.029,0.02-0.046,0.027
			c-0.082,0.045-0.168,0.084-0.258,0.121c-0.019,0.008-0.036,0.015-0.055,0.021c-0.095,0.037-0.192,0.069-0.294,0.096
			c-0.001,0-0.001,0.001-0.002,0.001v0.687h3.254h0.951h0.576l1.424-1.424v-1.527L5.643,44.604z M4.879,48.25
			c-0.805,0-1.458-0.652-1.458-1.459c0-0.805,0.653-1.458,1.458-1.458c0.807,0,1.459,0.653,1.459,1.458
			C6.338,47.598,5.686,48.25,4.879,48.25z"/>
		<path id="PIN_x5F__x5F_b15" fill="#FBD30B" d="M5.643,51.691H5.066H4.115H0.861v0.518c0.001,0,0.001,0.001,0.002,0.001
			c0.102,0.026,0.199,0.06,0.294,0.096c0.019,0.007,0.036,0.015,0.055,0.021c0.09,0.037,0.176,0.076,0.258,0.121
			c0.017,0.009,0.03,0.019,0.046,0.027c0.143,0.083,0.271,0.176,0.384,0.28c0.023,0.021,0.051,0.041,0.073,0.064
			c0.037,0.038,0.067,0.079,0.101,0.119c0.038,0.047,0.075,0.094,0.107,0.145c0.023,0.037,0.045,0.075,0.065,0.114
			c0.032,0.061,0.058,0.123,0.08,0.187c0.012,0.034,0.024,0.066,0.033,0.101c0.026,0.101,0.043,0.202,0.043,0.309
			s-0.017,0.208-0.043,0.309c-0.009,0.034-0.021,0.066-0.033,0.101c-0.022,0.063-0.048,0.126-0.08,0.187
			c-0.021,0.039-0.042,0.077-0.065,0.114c-0.032,0.051-0.069,0.098-0.107,0.145c-0.033,0.04-0.063,0.081-0.101,0.119
			c-0.022,0.023-0.05,0.043-0.073,0.064c-0.113,0.104-0.241,0.197-0.384,0.28C1.5,55.121,1.486,55.131,1.47,55.14
			c-0.082,0.045-0.168,0.084-0.258,0.121c-0.019,0.007-0.036,0.015-0.055,0.021c-0.095,0.036-0.192,0.069-0.294,0.096
			c-0.001,0-0.001,0.001-0.002,0.001v0.686h3.254h0.951h0.576l1.424-1.423v-1.527L5.643,51.691z M4.879,55.336
			c-0.805,0-1.458-0.652-1.458-1.458s0.653-1.458,1.458-1.458c0.807,0,1.459,0.652,1.459,1.458S5.686,55.336,4.879,55.336z"/>
		<path id="PIN_x5F__x5F_batIn" fill="#FBD30B" d="M5.643,58.777H5.066H4.115H0.861v0.519c0.001,0,0.001,0.001,0.002,0.001
			c0.102,0.026,0.199,0.059,0.294,0.096c0.019,0.007,0.036,0.014,0.055,0.021c0.09,0.037,0.176,0.076,0.258,0.121
			c0.017,0.008,0.03,0.018,0.046,0.027c0.143,0.082,0.271,0.176,0.384,0.279c0.023,0.021,0.051,0.042,0.073,0.064
			c0.037,0.039,0.067,0.08,0.101,0.12c0.038,0.047,0.075,0.094,0.107,0.144c0.023,0.037,0.045,0.076,0.065,0.115
			c0.032,0.061,0.058,0.123,0.08,0.187c0.012,0.034,0.024,0.065,0.033,0.101c0.026,0.1,0.043,0.202,0.043,0.309
			c0,0.105-0.017,0.208-0.043,0.309c-0.009,0.033-0.021,0.066-0.033,0.1c-0.022,0.064-0.048,0.127-0.08,0.188
			c-0.021,0.039-0.042,0.076-0.065,0.114c-0.032,0.05-0.069,0.097-0.107,0.144c-0.033,0.041-0.063,0.082-0.101,0.12
			c-0.022,0.022-0.05,0.042-0.073,0.064c-0.113,0.104-0.241,0.197-0.384,0.28C1.5,62.207,1.486,62.218,1.47,62.227
			c-0.082,0.045-0.168,0.084-0.258,0.121c-0.019,0.007-0.036,0.014-0.055,0.021c-0.095,0.036-0.192,0.068-0.294,0.096
			c-0.001,0-0.001,0-0.002,0v0.687h3.254h0.951h0.576l1.424-1.423v-1.527L5.643,58.777z M4.879,62.423
			c-0.805,0-1.458-0.653-1.458-1.458c0-0.807,0.653-1.459,1.458-1.459c0.807,0,1.459,0.652,1.459,1.459
			C6.338,61.77,5.686,62.423,4.879,62.423z"/>
		<path id="PIN_x5F__x5F_a4" fill="#FBD30B" d="M10.896,1.03C10.896,1.031,10.896,1.031,10.896,1.03
			c-0.02,0.068-0.041,0.134-0.064,0.197c-0.006,0.012-0.01,0.024-0.015,0.036c-0.024,0.06-0.051,0.117-0.081,0.172
			c-0.006,0.01-0.012,0.02-0.018,0.03c-0.055,0.095-0.117,0.18-0.186,0.255c-0.016,0.016-0.029,0.034-0.044,0.049
			c-0.025,0.025-0.053,0.045-0.079,0.067c-0.031,0.025-0.062,0.05-0.096,0.071c-0.025,0.016-0.051,0.03-0.077,0.043
			c-0.04,0.021-0.081,0.039-0.124,0.054c-0.022,0.009-0.044,0.017-0.066,0.022C9.98,2.045,9.912,2.056,9.842,2.056
			c-0.071,0-0.14-0.011-0.206-0.028C9.613,2.021,9.592,2.014,9.569,2.005C9.527,1.99,9.484,1.973,9.445,1.951
			C9.418,1.938,9.394,1.924,9.368,1.908C9.335,1.887,9.304,1.862,9.273,1.837C9.246,1.814,9.219,1.795,9.193,1.77
			C9.178,1.755,9.164,1.736,9.15,1.721C9.08,1.646,9.02,1.561,8.964,1.466c-0.006-0.011-0.013-0.021-0.019-0.03
			c-0.029-0.055-0.057-0.112-0.08-0.172c-0.006-0.012-0.01-0.024-0.015-0.036C8.826,1.164,8.805,1.099,8.787,1.031c0,0,0,0,0-0.001
			H8.441v2.165v0.634v0.383L9.389,5.16h1.017l0.948-0.948V3.829V3.195V1.03H10.896z M9.896,4.675c-0.536,0-0.971-0.435-0.971-0.971
			c0-0.535,0.435-0.971,0.971-0.971c0.537,0,0.971,0.436,0.971,0.971C10.867,4.24,10.434,4.675,9.896,4.675z"/>
		<path id="PIN_x5F__x5F_a3" fill="#FBD30B" d="M14.551,1.03C14.551,1.031,14.551,1.031,14.551,1.03
			c-0.018,0.068-0.039,0.134-0.064,0.197c-0.004,0.012-0.009,0.024-0.014,0.036c-0.024,0.06-0.051,0.117-0.08,0.172
			c-0.006,0.01-0.014,0.02-0.02,0.03c-0.055,0.095-0.116,0.18-0.186,0.255c-0.015,0.016-0.027,0.034-0.043,0.049
			c-0.025,0.025-0.053,0.045-0.08,0.067c-0.031,0.025-0.062,0.05-0.096,0.071c-0.025,0.016-0.05,0.03-0.076,0.043
			c-0.04,0.021-0.082,0.039-0.125,0.054c-0.021,0.009-0.043,0.017-0.066,0.022c-0.066,0.018-0.135,0.028-0.205,0.028
			s-0.139-0.011-0.205-0.028c-0.023-0.006-0.045-0.014-0.066-0.022C13.182,1.99,13.141,1.973,13.1,1.951
			c-0.025-0.013-0.051-0.027-0.076-0.043c-0.033-0.021-0.064-0.046-0.096-0.071c-0.027-0.022-0.055-0.042-0.08-0.067
			c-0.015-0.015-0.028-0.033-0.043-0.049c-0.068-0.075-0.131-0.16-0.186-0.255c-0.006-0.011-0.013-0.021-0.018-0.03
			c-0.031-0.055-0.057-0.112-0.082-0.172c-0.004-0.012-0.009-0.024-0.014-0.036c-0.024-0.063-0.046-0.129-0.064-0.196
			c0,0,0,0,0-0.001h-0.457v2.165v0.634v0.383l0.947,0.948h1.018l0.947-0.948V3.829V3.195V1.03H14.551z M13.44,4.675
			c-0.536,0-0.971-0.435-0.971-0.971c0-0.535,0.435-0.971,0.971-0.971s0.971,0.436,0.971,0.971
			C14.411,4.24,13.977,4.675,13.44,4.675z"/>
		<path id="PIN_x5F__x5F_a2" fill="#FBD30B" d="M17.982,1.03C17.982,1.031,17.982,1.031,17.982,1.03
			c-0.018,0.068-0.039,0.134-0.064,0.197c-0.004,0.012-0.009,0.024-0.014,0.036c-0.024,0.06-0.051,0.117-0.081,0.172
			c-0.005,0.01-0.013,0.02-0.018,0.03c-0.056,0.095-0.117,0.18-0.187,0.255c-0.014,0.016-0.027,0.034-0.043,0.049
			c-0.025,0.025-0.053,0.045-0.08,0.067c-0.031,0.025-0.062,0.05-0.096,0.071c-0.025,0.016-0.05,0.03-0.076,0.043
			c-0.04,0.021-0.082,0.039-0.125,0.054c-0.021,0.009-0.043,0.017-0.066,0.022c-0.066,0.018-0.135,0.028-0.205,0.028
			s-0.139-0.011-0.205-0.028c-0.023-0.006-0.045-0.014-0.066-0.022c-0.043-0.015-0.084-0.032-0.125-0.054
			c-0.025-0.013-0.051-0.027-0.076-0.043c-0.033-0.021-0.064-0.046-0.096-0.071c-0.027-0.022-0.055-0.042-0.08-0.067
			c-0.015-0.015-0.027-0.033-0.043-0.049c-0.068-0.075-0.131-0.16-0.186-0.255c-0.006-0.011-0.013-0.021-0.019-0.03
			c-0.03-0.055-0.056-0.112-0.081-0.172c-0.004-0.012-0.009-0.024-0.014-0.036c-0.024-0.063-0.046-0.129-0.063-0.196
			c0,0-0.001,0-0.001-0.001h-0.346v2.165v0.634v0.383l0.948,0.948h1.017l0.947-0.948V3.829V3.195V1.03H17.982z M16.984,4.675
			c-0.537,0-0.971-0.435-0.971-0.971c0-0.535,0.434-0.971,0.971-0.971c0.536,0,0.971,0.436,0.971,0.971
			C17.955,4.24,17.521,4.675,16.984,4.675z"/>
		<path id="PIN_x5F__x5F_a1" fill="#FBD30B" d="M21.638,1.03C21.638,1.031,21.637,1.031,21.638,1.03
			c-0.019,0.068-0.04,0.134-0.063,0.197c-0.006,0.012-0.01,0.024-0.015,0.036c-0.024,0.06-0.051,0.117-0.081,0.172
			c-0.006,0.01-0.012,0.02-0.018,0.03c-0.056,0.095-0.117,0.18-0.187,0.255c-0.015,0.016-0.028,0.034-0.043,0.049
			c-0.025,0.025-0.053,0.045-0.08,0.067c-0.03,0.025-0.062,0.05-0.095,0.071c-0.025,0.016-0.051,0.03-0.077,0.043
			c-0.04,0.021-0.082,0.039-0.124,0.054c-0.022,0.009-0.044,0.017-0.066,0.022c-0.066,0.018-0.135,0.028-0.206,0.028
			c-0.07,0-0.139-0.011-0.205-0.028c-0.022-0.006-0.044-0.014-0.066-0.022c-0.043-0.015-0.085-0.032-0.124-0.054
			c-0.027-0.013-0.052-0.027-0.077-0.043c-0.033-0.021-0.064-0.046-0.096-0.071c-0.026-0.022-0.054-0.042-0.079-0.067
			c-0.016-0.015-0.029-0.033-0.044-0.049c-0.069-0.075-0.131-0.16-0.187-0.255c-0.005-0.011-0.012-0.021-0.018-0.03
			c-0.029-0.055-0.057-0.112-0.08-0.172c-0.006-0.012-0.01-0.024-0.015-0.036c-0.024-0.063-0.046-0.129-0.063-0.196
			c0,0-0.001,0-0.001-0.001h-0.457v2.165v0.634v0.383L20.02,5.16h1.016l0.948-0.948V3.829V3.195V1.03H21.638z M20.527,4.675
			c-0.537,0-0.971-0.435-0.971-0.971c0-0.535,0.434-0.971,0.971-0.971s0.971,0.436,0.971,0.971
			C21.498,4.24,21.064,4.675,20.527,4.675z"/>
		<path id="PIN_x5F__x5F_a0" fill="#FBD30B" d="M25.07,1.03C25.07,1.031,25.069,1.031,25.07,1.03
			c-0.02,0.068-0.041,0.134-0.064,0.197C25,1.239,24.996,1.252,24.991,1.264c-0.024,0.06-0.051,0.117-0.081,0.172
			c-0.006,0.01-0.012,0.02-0.018,0.03c-0.055,0.095-0.117,0.18-0.186,0.255c-0.016,0.016-0.029,0.034-0.044,0.049
			c-0.025,0.025-0.053,0.045-0.079,0.067c-0.031,0.025-0.062,0.05-0.096,0.071c-0.025,0.016-0.051,0.03-0.077,0.043
			c-0.04,0.021-0.081,0.039-0.124,0.054c-0.022,0.009-0.044,0.017-0.066,0.022c-0.066,0.018-0.135,0.028-0.205,0.028
			c-0.071,0-0.14-0.011-0.206-0.028c-0.022-0.006-0.044-0.014-0.066-0.022c-0.042-0.015-0.085-0.032-0.124-0.054
			c-0.027-0.013-0.052-0.027-0.077-0.043c-0.033-0.021-0.064-0.046-0.095-0.071c-0.027-0.022-0.055-0.042-0.08-0.067
			c-0.016-0.015-0.029-0.033-0.043-0.049c-0.07-0.075-0.131-0.16-0.187-0.255c-0.006-0.011-0.013-0.021-0.019-0.03
			c-0.029-0.055-0.057-0.112-0.08-0.172c-0.006-0.012-0.01-0.024-0.015-0.036C23,1.164,22.979,1.099,22.961,1.031c0,0,0,0,0-0.001
			h-0.346v2.165v0.634v0.383l0.947,0.948h1.017l0.948-0.948V3.829V3.195V1.03H25.07z M24.07,4.675c-0.536,0-0.971-0.435-0.971-0.971
			c0-0.535,0.435-0.971,0.971-0.971c0.537,0,0.971,0.436,0.971,0.971C25.041,4.24,24.607,4.675,24.07,4.675z"/>
		<path id="PIN_x5F__x5F_a10" fill="#FBD30B" d="M28.725,1.03C28.725,1.031,28.725,1.031,28.725,1.03
			c-0.018,0.068-0.039,0.134-0.064,0.197c-0.004,0.012-0.009,0.024-0.014,0.036c-0.024,0.06-0.051,0.117-0.08,0.172
			c-0.006,0.01-0.014,0.02-0.02,0.03c-0.055,0.095-0.116,0.18-0.186,0.255c-0.015,0.016-0.027,0.034-0.043,0.049
			c-0.025,0.025-0.053,0.045-0.08,0.067c-0.031,0.025-0.062,0.05-0.096,0.071c-0.025,0.016-0.05,0.03-0.076,0.043
			c-0.04,0.021-0.082,0.039-0.125,0.054c-0.021,0.009-0.043,0.017-0.066,0.022c-0.066,0.018-0.135,0.028-0.205,0.028
			s-0.139-0.011-0.205-0.028c-0.023-0.006-0.045-0.014-0.066-0.022c-0.043-0.015-0.084-0.032-0.125-0.054
			c-0.025-0.013-0.051-0.027-0.076-0.043c-0.033-0.021-0.064-0.046-0.096-0.071c-0.027-0.022-0.055-0.042-0.08-0.067
			c-0.015-0.015-0.028-0.033-0.043-0.049c-0.068-0.075-0.131-0.16-0.186-0.255c-0.006-0.011-0.013-0.021-0.018-0.03
			c-0.031-0.055-0.057-0.112-0.082-0.172c-0.004-0.012-0.009-0.024-0.014-0.036c-0.024-0.063-0.046-0.129-0.064-0.196
			c0,0,0,0,0-0.001h-0.457v2.165v0.634v0.383l0.947,0.948h1.018l0.947-0.948V3.829V3.195V1.03H28.725z M27.614,4.675
			c-0.536,0-0.971-0.435-0.971-0.971c0-0.535,0.435-0.971,0.971-0.971s0.971,0.436,0.971,0.971
			C28.585,4.24,28.15,4.675,27.614,4.675z"/>
		<path id="PIN_x5F__x5F_b9" fill="#FBD30B" d="M32.156,1.03C32.156,1.031,32.156,1.031,32.156,1.03
			c-0.018,0.068-0.039,0.134-0.064,0.197c-0.004,0.012-0.009,0.024-0.014,0.036c-0.024,0.06-0.051,0.117-0.081,0.172
			c-0.005,0.01-0.013,0.02-0.018,0.03c-0.056,0.095-0.117,0.18-0.187,0.255c-0.014,0.016-0.027,0.034-0.043,0.049
			c-0.025,0.025-0.053,0.045-0.08,0.067c-0.031,0.025-0.062,0.05-0.096,0.071c-0.025,0.016-0.05,0.03-0.076,0.043
			c-0.04,0.021-0.082,0.039-0.125,0.054c-0.021,0.009-0.043,0.017-0.066,0.022c-0.066,0.018-0.135,0.028-0.205,0.028
			s-0.139-0.011-0.205-0.028c-0.023-0.006-0.045-0.014-0.066-0.022c-0.043-0.015-0.084-0.032-0.125-0.054
			c-0.025-0.013-0.051-0.027-0.076-0.043c-0.033-0.021-0.064-0.046-0.096-0.071c-0.027-0.022-0.055-0.042-0.08-0.067
			c-0.015-0.015-0.027-0.033-0.043-0.049c-0.068-0.075-0.131-0.16-0.186-0.255c-0.006-0.011-0.013-0.021-0.019-0.03
			c-0.03-0.055-0.056-0.112-0.081-0.172c-0.004-0.012-0.009-0.024-0.014-0.036c-0.024-0.063-0.046-0.129-0.063-0.196
			c0,0-0.001,0-0.001-0.001h-0.346v2.165v0.634v0.383l0.948,0.948h1.017l0.947-0.948V3.829V3.195V1.03H32.156z M31.158,4.675
			c-0.537,0-0.971-0.435-0.971-0.971c0-0.535,0.434-0.971,0.971-0.971c0.536,0,0.971,0.436,0.971,0.971
			C32.129,4.24,31.694,4.675,31.158,4.675z"/>
		<path id="PIN_x5F__x5F_b8" fill="#FBD30B" d="M35.812,1.03C35.812,1.031,35.811,1.031,35.812,1.03
			c-0.019,0.068-0.04,0.134-0.063,0.197c-0.006,0.012-0.01,0.024-0.015,0.036c-0.024,0.06-0.051,0.117-0.081,0.172
			c-0.006,0.01-0.012,0.02-0.018,0.03c-0.056,0.095-0.117,0.18-0.187,0.255c-0.015,0.016-0.028,0.034-0.043,0.049
			c-0.025,0.025-0.053,0.045-0.08,0.067c-0.03,0.025-0.062,0.05-0.095,0.071c-0.025,0.016-0.051,0.03-0.077,0.043
			c-0.04,0.021-0.082,0.039-0.124,0.054c-0.022,0.009-0.044,0.017-0.066,0.022c-0.066,0.018-0.135,0.028-0.206,0.028
			c-0.07,0-0.139-0.011-0.205-0.028c-0.022-0.006-0.044-0.014-0.066-0.022C34.442,1.99,34.4,1.973,34.361,1.951
			c-0.027-0.013-0.052-0.027-0.077-0.043c-0.033-0.021-0.064-0.046-0.096-0.071c-0.026-0.022-0.054-0.042-0.079-0.067
			c-0.016-0.015-0.029-0.033-0.044-0.049c-0.069-0.075-0.131-0.16-0.187-0.255c-0.005-0.011-0.012-0.021-0.018-0.03
			c-0.029-0.055-0.057-0.112-0.08-0.172c-0.006-0.012-0.01-0.024-0.015-0.036c-0.024-0.063-0.046-0.129-0.063-0.196
			c0,0-0.001,0-0.001-0.001h-0.457v2.165v0.634v0.383l0.948,0.948h1.016l0.948-0.948V3.829V3.195V1.03H35.812z M34.701,4.675
			c-0.537,0-0.971-0.435-0.971-0.971c0-0.535,0.434-0.971,0.971-0.971s0.971,0.436,0.971,0.971
			C35.672,4.24,35.238,4.675,34.701,4.675z"/>
		<path id="PIN_x5F__x5F_gnd" fill="#FBD30B" d="M8.646,9.938v2.625h2.625V9.938H8.646z M9.958,12.125
			c-0.483,0-0.875-0.392-0.875-0.875s0.392-0.875,0.875-0.875s0.875,0.392,0.875,0.875S10.441,12.125,9.958,12.125z"/>
		<path id="PIN_x5F__x5F_3.3" fill="#FBD30B" d="M9.958,13.396c-0.726,0-1.312,0.587-1.312,1.312c0,0.725,0.587,1.312,1.312,1.312
			s1.312-0.588,1.312-1.312C11.271,13.983,10.684,13.396,9.958,13.396z M9.958,15.584c-0.483,0-0.875-0.393-0.875-0.875
			c0-0.484,0.392-0.875,0.875-0.875s0.875,0.391,0.875,0.875C10.833,15.191,10.441,15.584,9.958,15.584z"/>
		<path id="PIN_x5F__x5F_vbat" fill="#FBD30B" d="M9.958,16.854c-0.726,0-1.312,0.587-1.312,1.312s0.587,1.312,1.312,1.312
			s1.312-0.587,1.312-1.312S10.684,16.854,9.958,16.854z M9.958,19.042c-0.483,0-0.875-0.392-0.875-0.875s0.392-0.875,0.875-0.875
			s0.875,0.392,0.875,0.875S10.441,19.042,9.958,19.042z"/>
	</g>
	<g id="swirl">
		<path fill="#FBD30B" d="M35.573,25.66c0.005-0.634,0.015-2.303-0.025-2.529c-0.049-0.281-0.112-0.438-0.455-0.262
			c-0.343,0.174-1.213,0.744-1.69,1.623c-0.477,0.879-0.221,1.549-0.221,1.549l0.015-0.001c0.143,0.524,0.603,0.917,1.173,0.913
			c0.609-0.006,1.09-0.463,1.18-1.048l0.022-0.001c0,0,0.001-0.046,0.001-0.121c0.001-0.023,0.014-0.043,0.013-0.066
			C35.585,25.696,35.574,25.68,35.573,25.66z"/>
		<circle fill="#3B322B" cx="34.367" cy="25.633" r="0.461"/>
	</g>
</g>
</svg>
