<?xml version="1.0" encoding="utf-8"?>
<!-- Generator: Adobe Illustrator 15.0.0, SVG Export Plug-In . SVG Version: 6.00 Build 0)  -->
<!DOCTYPE svg PUBLIC "-//W3C//DTD SVG 1.1//EN" "http://www.w3.org/Graphics/SVG/1.1/DTD/svg11.dtd">
<svg version="1.1" id="Layer_1" xmlns="http://www.w3.org/2000/svg" xmlns:xlink="http://www.w3.org/1999/xlink" x="0px" y="0px"
	 width="76.535px" height="76.535px" viewBox="0 0 76.535 76.535" enable-background="new 0 0 76.535 76.535" xml:space="preserve">
<path fill="#FDFDFD" stroke="#C1C1C1" stroke-width="0.2" stroke-miterlimit="10" d="M44.608,2.607
	c-0.074,0.359-0.416,0.61-0.785,0.551c-0.359-0.05-0.604-0.397-0.549-0.763c-0.18-0.025-0.365-0.035-0.547-0.058
	c-0.061,0.354-0.382,0.617-0.748,0.578c-0.357-0.03-0.615-0.356-0.588-0.718c-0.183-0.016-0.367-0.025-0.551-0.04
	c-0.045,0.355-0.35,0.632-0.717,0.612c-0.361-0.012-0.637-0.327-0.625-0.693c-0.186-0.008-0.371-0.009-0.557-0.015
	c-0.01,0.365-0.307,0.66-0.674,0.66c-0.369,0-0.666-0.296-0.676-0.662c-0.184,0.003-0.363,0.018-0.547,0.023
	c0.004,0.362-0.272,0.668-0.639,0.687c-0.367,0.019-0.68-0.261-0.708-0.625c-0.183,0.013-0.362,0.036-0.545,0.051
	c0.023,0.361-0.237,0.682-0.603,0.72c-0.365,0.039-0.691-0.224-0.739-0.587c-0.183,0.022-0.36,0.054-0.542,0.079
	c0.043,0.359-0.201,0.694-0.562,0.75c-0.363,0.058-0.701-0.187-0.77-0.545C14.952,5.607,2.043,20.423,2.043,38.267
	c0,17.843,12.902,32.661,29.884,35.661c0.074-0.367,0.416-0.618,0.785-0.557c0.361,0.053,0.611,0.402,0.557,0.77
	c0.178,0.024,0.359,0.034,0.539,0.057c0.06-0.363,0.382-0.626,0.748-0.584c0.36,0.033,0.623,0.362,0.596,0.726
	c0.18,0.016,0.362,0.024,0.543,0.039c0.044-0.364,0.351-0.641,0.717-0.619c0.363,0.015,0.646,0.333,0.633,0.7
	c0.18,0.008,0.361,0.009,0.541,0.015c0.02-0.371,0.315-0.669,0.688-0.667c0.363-0.004,0.663,0.302,0.668,0.669
	c0.182-0.003,0.361-0.018,0.541-0.023c0.004-0.368,0.281-0.677,0.65-0.694c0.363-0.023,0.68,0.268,0.703,0.633
	c0.182-0.013,0.359-0.035,0.539-0.051c-0.016-0.367,0.245-0.692,0.613-0.729c0.361-0.043,0.691,0.231,0.735,0.595
	c0.18-0.022,0.356-0.054,0.535-0.078c-0.036-0.365,0.208-0.704,0.575-0.761c0.357-0.06,0.701,0.195,0.764,0.555
	c16.987-2.993,29.896-17.81,29.896-35.655C74.493,20.425,61.591,5.606,44.608,2.607z M8.922,43.194
	c-0.671,0.488-1.607,0.338-2.096-0.334c-0.488-0.668-0.338-1.607,0.333-2.096c0.671-0.484,1.608-0.338,2.095,0.336
	C9.743,41.767,9.594,42.706,8.922,43.194z M12.053,52.636c-0.672,0.488-1.609,0.338-2.096-0.334
	c-0.488-0.668-0.34-1.607,0.332-2.096c0.671-0.484,1.608-0.338,2.095,0.336C12.873,51.208,12.723,52.147,12.053,52.636z
	 M16.588,57.171c-0.671,0.488-1.608,0.338-2.096-0.334c-0.488-0.668-0.339-1.607,0.333-2.096c0.671-0.484,1.608-0.338,2.095,0.336
	C17.409,55.743,17.26,56.683,16.588,57.171z M21.123,61.706c-0.671,0.488-1.608,0.338-2.095-0.334
	c-0.488-0.668-0.34-1.607,0.332-2.096c0.671-0.484,1.608-0.338,2.095,0.336C21.944,60.278,21.795,61.218,21.123,61.706z
	 M25.659,66.241c-0.671,0.488-1.608,0.338-2.095-0.334c-0.488-0.668-0.34-1.607,0.332-2.096c0.671-0.484,1.608-0.338,2.095,0.336
	C26.48,64.813,26.331,65.753,25.659,66.241z M50.679,61.373c-0.488-0.668-0.34-1.607,0.332-2.096
	c0.671-0.484,1.608-0.338,2.095,0.336c0.489,0.666,0.34,1.605-0.332,2.094C52.103,62.195,51.165,62.045,50.679,61.373z
	 M53.686,65.52c-0.671,0.488-1.608,0.338-2.095-0.334c-0.488-0.668-0.34-1.607,0.332-2.096c0.671-0.484,1.608-0.338,2.095,0.336
	C54.507,64.092,54.357,65.031,53.686,65.52z M54.179,57.467c-0.488-0.668-0.34-1.607,0.332-2.096
	c0.671-0.484,1.608-0.338,2.095,0.336c0.489,0.666,0.34,1.605-0.332,2.094C55.603,58.289,54.665,58.139,54.179,57.467z
	 M58.222,60.984c-0.671,0.488-1.608,0.338-2.095-0.334c-0.488-0.668-0.34-1.607,0.332-2.096c0.671-0.484,1.608-0.338,2.095,0.336
	C59.043,59.557,58.894,60.496,58.222,60.984z M59.748,54.226c-0.671,0.488-1.608,0.338-2.095-0.334
	c-0.488-0.668-0.34-1.607,0.332-2.096c0.671-0.484,1.608-0.338,2.095,0.336C60.569,52.798,60.42,53.737,59.748,54.226z
	 M62.757,56.449c-0.671,0.488-1.608,0.338-2.095-0.334c-0.488-0.668-0.34-1.607,0.332-2.096c0.671-0.484,1.608-0.338,2.095,0.336
	C63.578,55.021,63.429,55.961,62.757,56.449z M63.222,51.065c-0.671,0.488-1.608,0.338-2.095-0.334
	c-0.488-0.668-0.34-1.607,0.332-2.096c0.671-0.484,1.608-0.338,2.095,0.336C64.043,49.638,63.894,50.577,63.222,51.065z
	 M67.293,51.914c-0.671,0.488-1.608,0.338-2.095-0.334c-0.488-0.668-0.34-1.607,0.332-2.096c0.671-0.484,1.608-0.338,2.095,0.336
	C68.114,50.486,67.965,51.426,67.293,51.914z M69.604,41.895c-0.671,0.488-1.608,0.338-2.095-0.334
	c-0.488-0.668-0.34-1.607,0.332-2.096c0.671-0.484,1.608-0.338,2.095,0.336C70.425,40.467,70.275,41.406,69.604,41.895z"/>
<path fill="#FFDE04" d="M11.994,49.11h-1.646l-1.488,1.488v1.646l1.488,1.488h1.646l1.488-1.488v-1.646L11.994,49.11z
	 M12.053,52.636c-0.672,0.488-1.609,0.338-2.096-0.333c-0.488-0.668-0.34-1.607,0.332-2.096c0.671-0.485,1.608-0.338,2.095,0.335
	C12.873,51.209,12.723,52.147,12.053,52.636z"/>
<path fill="#FFDE04" d="M16.529,53.646h-1.646l-1.488,1.488v1.646l1.488,1.488h1.646l1.488-1.488v-1.646L16.529,53.646z
	 M16.588,57.171c-0.672,0.488-1.608,0.338-2.096-0.333c-0.488-0.668-0.339-1.607,0.332-2.096c0.672-0.485,1.609-0.338,2.096,0.335
	C17.408,55.744,17.259,56.683,16.588,57.171z"/>
<path fill="#FFDE04" d="M21.065,58.181h-1.646l-1.488,1.488v1.646l1.488,1.488h1.646l1.488-1.488v-1.646L21.065,58.181z
	 M21.124,61.706c-0.672,0.488-1.609,0.338-2.096-0.333c-0.488-0.668-0.34-1.607,0.332-2.096c0.671-0.485,1.608-0.338,2.095,0.335
	C21.944,60.279,21.794,61.218,21.124,61.706z"/>
<path fill="#FFDE04" d="M25.601,62.716h-1.646l-1.488,1.488v1.646l1.488,1.488h1.646l1.488-1.488v-1.646L25.601,62.716z
	 M25.659,66.241c-0.672,0.488-1.608,0.338-2.096-0.333c-0.488-0.668-0.339-1.607,0.332-2.096c0.672-0.485,1.609-0.338,2.096,0.335
	C26.479,64.814,26.33,65.753,25.659,66.241z"/>
<path fill="#FFDE04" d="M8.864,39.669H7.217l-1.487,1.488v1.646l1.487,1.488h1.647l1.487-1.488v-1.646L8.864,39.669z M8.922,43.194
	c-0.671,0.488-1.607,0.338-2.096-0.334c-0.488-0.668-0.338-1.607,0.333-2.096c0.671-0.484,1.608-0.338,2.095,0.336
	C9.743,41.767,9.594,42.706,8.922,43.194z"/>
<path fill="#FFDE04" d="M69.546,38.369h-1.646l-1.488,1.488v1.646l1.488,1.488h1.646l1.488-1.488v-1.646L69.546,38.369z
	 M69.604,41.895c-0.672,0.488-1.609,0.338-2.096-0.334c-0.488-0.668-0.34-1.607,0.332-2.096c0.671-0.484,1.608-0.338,2.095,0.336
	C70.425,40.467,70.274,41.406,69.604,41.895z"/>
<path fill="#FFDE04" d="M64.101,49.877v1.646l1.487,1.488h1.647l1.487-1.488v-1.646l-1.487-1.488h-1.647L64.101,49.877z
	 M65.198,49.82c0.486-0.673,1.424-0.82,2.095-0.335c0.671,0.488,0.821,1.428,0.333,2.096c-0.488,0.671-1.425,0.821-2.096,0.333
	C64.858,51.426,64.709,50.487,65.198,49.82z"/>
<path fill="#FFDE04" d="M59.564,54.412v1.646l1.487,1.488h1.647l1.487-1.488v-1.646l-1.487-1.488h-1.647L59.564,54.412z
	 M60.663,54.355c0.486-0.673,1.424-0.82,2.094-0.335c0.672,0.488,0.821,1.428,0.333,2.096c-0.487,0.671-1.425,0.821-2.096,0.333
	S60.173,55.022,60.663,54.355z"/>
<path fill="#FFDE04" d="M55.028,58.947v1.646l1.488,1.488h1.646l1.488-1.488v-1.646l-1.488-1.488h-1.646L55.028,58.947z
	 M56.127,58.891c0.486-0.673,1.424-0.82,2.095-0.335c0.672,0.488,0.82,1.428,0.332,2.096c-0.486,0.671-1.424,0.821-2.096,0.333
	C55.788,60.496,55.638,59.558,56.127,58.891z"/>
<path fill="#FFDE04" d="M50.493,63.482v1.646l1.488,1.488h1.646l1.488-1.488v-1.646l-1.488-1.488h-1.646L50.493,63.482z
	 M51.591,63.426c0.486-0.673,1.424-0.82,2.096-0.335c0.671,0.488,0.82,1.428,0.332,2.096c-0.487,0.671-1.424,0.821-2.096,0.333
	C51.252,65.031,51.103,64.093,51.591,63.426z"/>
<path fill="#FFDE04" d="M60.029,49.028v1.646l1.487,1.488h1.647l1.487-1.488v-1.646l-1.487-1.488h-1.647L60.029,49.028z
	 M61.128,48.972c0.486-0.673,1.424-0.82,2.094-0.335c0.672,0.488,0.821,1.428,0.333,2.096c-0.487,0.671-1.425,0.821-2.096,0.333
	S60.638,49.639,61.128,48.972z"/>
<path fill="#FFDE04" d="M56.556,52.188v1.646l1.487,1.488h1.647l1.487-1.488v-1.646L59.69,50.7h-1.647L56.556,52.188z
	 M57.653,52.132c0.486-0.673,1.424-0.82,2.095-0.335c0.671,0.488,0.821,1.428,0.333,2.096c-0.488,0.671-1.425,0.821-2.096,0.333
	C57.313,53.737,57.164,52.799,57.653,52.132z"/>
<path fill="#FFDE04" d="M53.081,55.764v1.646l1.488,1.488h1.646l1.488-1.488v-1.646l-1.488-1.488h-1.646L53.081,55.764z
	 M54.179,55.707c0.486-0.673,1.424-0.82,2.096-0.335c0.671,0.488,0.82,1.428,0.332,2.096c-0.487,0.671-1.424,0.821-2.096,0.333
	C53.84,57.312,53.69,56.374,54.179,55.707z"/>
<path fill="#FFDE04" d="M49.581,59.67v1.646l1.487,1.488h1.647l1.487-1.488V59.67l-1.487-1.488h-1.647L49.581,59.67z M50.679,59.613
	c0.486-0.673,1.424-0.82,2.095-0.335c0.671,0.488,0.821,1.428,0.333,2.096c-0.488,0.671-1.425,0.821-2.096,0.333
	C50.339,61.219,50.189,60.28,50.679,59.613z"/>
<g>
	<path fill="#C6C6C6" d="M35.862,63.218c0,0.312,0.217,0.566,0.484,0.566h3.843c0.268,0,0.485-0.254,0.485-0.566v-1.033
		c0-0.313-0.218-0.567-0.485-0.567h-3.843c-0.268,0-0.484,0.254-0.484,0.567V63.218z"/>
	<rect x="37.144" y="61.648" fill="#E4D9B6" width="2.25" height="2.167"/>
</g>
<g>
	<path fill="#C6C6C6" d="M55.499,43.375c0,0.24,0.166,0.434,0.371,0.434h2.941c0.205,0,0.371-0.193,0.371-0.434v-0.79
		c0-0.24-0.166-0.435-0.371-0.435H55.87c-0.205,0-0.371,0.194-0.371,0.435V43.375z"/>
	<rect x="56.479" y="42.174" fill="#E4D9B6" width="1.723" height="1.659"/>
</g>
<g>
	<path fill="#C6C6C6" d="M55.499,47.438c0,0.24,0.166,0.434,0.371,0.434h2.941c0.205,0,0.371-0.193,0.371-0.434v-0.79
		c0-0.24-0.166-0.435-0.371-0.435H55.87c-0.205,0-0.371,0.194-0.371,0.435V47.438z"/>
	<rect x="56.479" y="46.236" fill="#E4D9B6" width="1.723" height="1.659"/>
</g>
<g>
	<path fill="#C6C6C6" d="M62.825,24.156c0,0.24,0.166,0.435,0.371,0.435h2.941c0.205,0,0.371-0.194,0.371-0.435v-0.789
		c0-0.24-0.166-0.436-0.371-0.436h-2.941c-0.205,0-0.371,0.195-0.371,0.436V24.156z"/>
	<rect x="63.806" y="22.956" fill="#E4D9B6" width="1.723" height="1.659"/>
</g>
<g>
	<path fill="#C6C6C6" d="M62.825,26.739c0,0.24,0.166,0.435,0.371,0.435h2.941c0.205,0,0.371-0.194,0.371-0.435V25.95
		c0-0.24-0.166-0.436-0.371-0.436h-2.941c-0.205,0-0.371,0.195-0.371,0.436V26.739z"/>
	<rect x="63.806" y="25.539" fill="#E4D9B6" width="1.723" height="1.659"/>
</g>
<g>
	<path fill="#C6C6C6" d="M62.825,29.322c0,0.24,0.166,0.435,0.371,0.435h2.941c0.205,0,0.371-0.194,0.371-0.435v-0.789
		c0-0.24-0.166-0.436-0.371-0.436h-2.941c-0.205,0-0.371,0.195-0.371,0.436V29.322z"/>
	<rect x="63.806" y="28.122" fill="#E4D9B6" width="1.723" height="1.659"/>
</g>
<g>
	<path fill="#C6C6C6" d="M21.495,44.662c-0.24,0-0.436,0.166-0.436,0.371v2.941c0,0.205,0.195,0.371,0.436,0.371h0.79
		c0.239,0,0.435-0.166,0.435-0.371v-2.941c0-0.205-0.195-0.371-0.435-0.371H21.495z"/>
	<rect x="21.036" y="45.643" fill="#095D76" width="1.659" height="1.723"/>
</g>
<g>
	<path fill="#C6C6C6" d="M21.495,49.58c-0.24,0-0.436,0.166-0.436,0.371v2.941c0,0.205,0.195,0.371,0.436,0.371h0.79
		c0.239,0,0.435-0.166,0.435-0.371v-2.941c0-0.205-0.195-0.371-0.435-0.371H21.495z"/>
	<rect x="21.036" y="50.561" fill="#095D76" width="1.659" height="1.723"/>
</g>
<g>
	<path fill="#C6C6C6" d="M19.61,25.469c0-0.239-0.166-0.434-0.371-0.434h-2.941c-0.204,0-0.371,0.194-0.371,0.434v0.791
		c0,0.24,0.167,0.434,0.371,0.434h2.941c0.205,0,0.371-0.193,0.371-0.434V25.469z"/>
	<rect x="16.907" y="25.012" fill="#095D76" width="1.723" height="1.658"/>
</g>
<g>
	<path fill="#C6C6C6" d="M28.46,47.512c0-0.239-0.166-0.434-0.371-0.434h-2.941c-0.204,0-0.371,0.194-0.371,0.434v0.791
		c0,0.24,0.167,0.434,0.371,0.434h2.941c0.205,0,0.371-0.193,0.371-0.434V47.512z"/>
	<rect x="25.757" y="47.055" fill="#095D76" width="1.723" height="1.658"/>
</g>
<g>
	<path fill="#C6C6C6" d="M64.861,40.296c0-0.239-0.167-0.434-0.371-0.434h-2.941c-0.204,0-0.371,0.194-0.371,0.434v0.791
		c0,0.24,0.167,0.434,0.371,0.434h2.941c0.204,0,0.371-0.193,0.371-0.434V40.296z"/>
	<rect x="62.158" y="39.839" fill="#095D76" width="1.723" height="1.658"/>
</g>
<g>
	<path fill="#C6C6C6" d="M37.144,55.573c0-0.239-0.167-0.434-0.371-0.434h-2.941c-0.205,0-0.371,0.194-0.371,0.434v0.791
		c0,0.24,0.166,0.434,0.371,0.434h2.941c0.204,0,0.371-0.193,0.371-0.434V55.573z"/>
	<rect x="34.44" y="55.116" fill="#095D76" width="1.723" height="1.658"/>
</g>
<g>
	<path fill="#C6C6C6" d="M41.952,55.573c0-0.239-0.167-0.434-0.371-0.434H38.64c-0.205,0-0.371,0.194-0.371,0.434v0.791
		c0,0.24,0.166,0.434,0.371,0.434h2.941c0.204,0,0.371-0.193,0.371-0.434V55.573z"/>
	<rect x="39.249" y="55.116" fill="#095D76" width="1.723" height="1.658"/>
</g>
<g>
	<path fill="#C6C6C6" d="M46.761,55.573c0-0.239-0.167-0.434-0.371-0.434h-2.941c-0.205,0-0.371,0.194-0.371,0.434v0.791
		c0,0.24,0.166,0.434,0.371,0.434h2.941c0.204,0,0.371-0.193,0.371-0.434V55.573z"/>
	<rect x="44.058" y="55.116" fill="#095D76" width="1.723" height="1.658"/>
</g>
<g>
	<path fill="#C6C6C6" d="M21.658,37.713c-0.313,0-0.567,0.217-0.567,0.484v3.844c0,0.268,0.254,0.484,0.567,0.484h1.033
		c0.313,0,0.567-0.217,0.567-0.484v-3.844c0-0.268-0.254-0.484-0.567-0.484H21.658z"/>
	<rect x="21.06" y="38.994" fill="#095D76" width="2.168" height="2.25"/>
</g>
<circle fill="#C7C6C6" cx="11.17" cy="35.51" r="3.484"/>
<circle fill="#C7C6C6" cx="65.239" cy="34.884" r="3.484"/>
<circle fill="#C7C6C6" cx="47.009" cy="66.617" r="2.323"/>
<circle fill="#FFDE08" cx="55.018" cy="16.805" r="2.136"/>
<circle fill="#FFDE08" cx="59.768" cy="16.805" r="2.136"/>
<circle fill="#FFDE08" cx="59.768" cy="21.398" r="2.136"/>
<circle fill="#C7C6C6" cx="30.384" cy="66.617" r="2.323"/>
<g id="led_33_">
	<rect x="34.517" y="49.357" fill="#B2B2B2" width="1.57" height="4.125"/>
	<rect x="34.431" y="50.477" fill="#DADADA" width="1.742" height="1.885"/>
</g>
<g id="led_32_">
	<rect x="37.483" y="49.357" fill="#B2B2B2" width="1.57" height="4.125"/>
	<rect x="37.397" y="50.477" fill="#DADADA" width="1.742" height="1.885"/>
</g>
<g id="led_31_">
	<rect x="40.45" y="49.357" fill="#B2B2B2" width="1.57" height="4.125"/>
	<rect x="40.364" y="50.477" fill="#DADADA" width="1.742" height="1.885"/>
</g>
<g id="led_30_">
	<rect x="13.644" y="28.029" fill="#B2B2B2" width="4.125" height="1.571"/>
	<rect x="14.763" y="27.944" fill="#DADADA" width="1.885" height="1.742"/>
</g>
<g>
	<g>
		<g>
			<rect x="59.644" y="24.785" fill="#B2B2B2" width="0.625" height="0.364"/>
			<rect x="59.644" y="25.895" fill="#B2B2B2" width="0.625" height="0.364"/>
			<rect x="59.644" y="27.004" fill="#B2B2B2" width="0.625" height="0.364"/>
			<rect x="59.644" y="28.113" fill="#B2B2B2" width="0.625" height="0.364"/>
			<rect x="59.644" y="29.223" fill="#B2B2B2" width="0.625" height="0.364"/>
		</g>
		<g>
			<rect x="54.271" y="24.785" fill="#B2B2B2" width="0.625" height="0.364"/>
			<rect x="54.271" y="25.895" fill="#B2B2B2" width="0.625" height="0.364"/>
			<rect x="54.271" y="27.004" fill="#B2B2B2" width="0.625" height="0.364"/>
			<rect x="54.271" y="28.113" fill="#B2B2B2" width="0.625" height="0.364"/>
			<rect x="54.271" y="29.223" fill="#B2B2B2" width="0.625" height="0.364"/>
		</g>
	</g>
	<g>
		<path fill="#3C3C3B" d="M54.601,28.94c0,0.553,0.448,1,1,1h3.338c0.553,0,1-0.447,1-1v-3.509c0-0.553-0.447-1-1-1h-3.338
			c-0.552,0-1,0.447-1,1V28.94z"/>
	</g>
</g>
<g>
	<rect x="26.97" y="44.904" fill="#B2B2B2" width="1.215" height="1.478"/>
	<rect x="28.876" y="44.904" fill="#B2B2B2" width="1.215" height="1.478"/>
	<rect x="30.782" y="44.904" fill="#B2B2B2" width="1.215" height="1.478"/>
	<rect x="32.688" y="44.904" fill="#B2B2B2" width="1.215" height="1.478"/>
	<rect x="34.595" y="44.904" fill="#B2B2B2" width="1.215" height="1.478"/>
	<rect x="36.501" y="44.904" fill="#B2B2B2" width="1.215" height="1.478"/>
	<rect x="38.407" y="44.904" fill="#B2B2B2" width="1.215" height="1.478"/>
	<rect x="40.313" y="44.904" fill="#B2B2B2" width="1.215" height="1.478"/>
	<rect x="42.22" y="44.904" fill="#B2B2B2" width="1.215" height="1.478"/>
	<rect x="44.126" y="44.904" fill="#B2B2B2" width="1.215" height="1.478"/>
	<rect x="46.032" y="44.904" fill="#B2B2B2" width="1.215" height="1.478"/>
	<rect x="47.938" y="44.904" fill="#B2B2B2" width="1.215" height="1.478"/>
</g>
<rect x="51.316" y="39.342" fill="#B2B2B2" width="1.021" height="1.478"/>
<rect x="51.316" y="37.498" fill="#B2B2B2" width="1.021" height="1.478"/>
<rect x="51.316" y="35.654" fill="#B2B2B2" width="1.021" height="1.478"/>
<rect x="51.316" y="33.811" fill="#B2B2B2" width="1.021" height="1.478"/>
<rect x="51.316" y="31.967" fill="#B2B2B2" width="1.021" height="1.478"/>
<rect x="51.316" y="30.123" fill="#B2B2B2" width="1.021" height="1.478"/>
<rect x="51.316" y="28.279" fill="#B2B2B2" width="1.021" height="1.478"/>
<rect x="51.316" y="26.436" fill="#B2B2B2" width="1.021" height="1.478"/>
<rect x="51.316" y="24.592" fill="#B2B2B2" width="1.021" height="1.478"/>
<rect x="51.316" y="22.748" fill="#B2B2B2" width="1.021" height="1.478"/>
<rect x="51.316" y="20.904" fill="#B2B2B2" width="1.021" height="1.478"/>
<rect x="51.316" y="19.061" fill="#B2B2B2" width="1.021" height="1.478"/>
<rect x="51.316" y="17.217" fill="#B2B2B2" width="1.021" height="1.478"/>
<rect x="51.316" y="15.373" fill="#B2B2B2" width="1.021" height="1.478"/>
<rect x="51.316" y="13.529" fill="#B2B2B2" width="1.021" height="1.478"/>
<g>
	<rect x="23.887" y="37.498" fill="#B2B2B2" width="1.021" height="1.478"/>
	<rect x="23.887" y="35.654" fill="#B2B2B2" width="1.021" height="1.478"/>
	<rect x="23.887" y="33.811" fill="#B2B2B2" width="1.021" height="1.478"/>
	<rect x="23.887" y="31.967" fill="#B2B2B2" width="1.021" height="1.478"/>
	<rect x="23.887" y="30.123" fill="#B2B2B2" width="1.021" height="1.478"/>
	<rect x="23.887" y="28.279" fill="#B2B2B2" width="1.021" height="1.478"/>
	<rect x="23.887" y="26.436" fill="#B2B2B2" width="1.021" height="1.478"/>
	<rect x="23.887" y="24.592" fill="#B2B2B2" width="1.021" height="1.478"/>
	<rect x="23.887" y="22.748" fill="#B2B2B2" width="1.021" height="1.478"/>
	<rect x="23.887" y="13.529" fill="#B2B2B2" width="1.021" height="1.478"/>
</g>
<g>
	<path fill="#C6C6C6" d="M36.426,67.221c0,0.24,0.166,0.435,0.371,0.435h2.941c0.205,0,0.371-0.194,0.371-0.435v-0.789
		c0-0.24-0.166-0.436-0.371-0.436h-2.941c-0.205,0-0.371,0.195-0.371,0.436V67.221z"/>
	<rect x="37.406" y="66.021" fill="#3C3C3B" width="1.723" height="1.659"/>
</g>
<rect x="11.315" y="19.958" transform="matrix(0.7072 -0.707 0.707 0.7072 -11.9318 15.9879)" fill="#C1C1C1" width="4.046" height="4.886"/>
<rect x="16.398" y="14.791" transform="matrix(0.7072 -0.707 0.707 0.7072 -6.7906 18.0688)" fill="#C1C1C1" width="4.046" height="4.886"/>
<rect x="55.071" y="32.396" fill="#C1C1C1" width="2.895" height="2.892"/>
<rect x="48.133" y="48.406" fill="#C1C1C1" width="2.583" height="3.588"/>
<rect x="53.081" y="48.406" fill="#C1C1C1" width="2.583" height="3.588"/>
<rect x="58.491" y="32.396" fill="#C1C1C1" width="2.895" height="2.892"/>
<rect x="55.071" y="36.614" fill="#C1C1C1" width="2.895" height="2.892"/>
<rect x="58.491" y="36.614" fill="#C1C1C1" width="2.895" height="2.892"/>
<rect x="50.32" y="53.75" fill="#C1C1C1" width="2.583" height="3.588"/>
<g>
	<path fill="#FFDE00" d="M51.826,14.702L51.826,14.702c-0.028-0.009-0.058-0.019-0.085-0.028c-0.005-0.003-0.011-0.004-0.015-0.007
		c-0.026-0.011-0.052-0.021-0.075-0.035c-0.004-0.003-0.009-0.004-0.013-0.007c-0.042-0.023-0.078-0.052-0.111-0.081
		c-0.006-0.007-0.015-0.014-0.021-0.02c-0.011-0.011-0.02-0.022-0.029-0.034c-0.011-0.014-0.021-0.026-0.03-0.041
		c-0.007-0.011-0.013-0.021-0.02-0.034c-0.009-0.018-0.017-0.035-0.022-0.054c-0.004-0.009-0.008-0.019-0.01-0.028
		c-0.009-0.029-0.012-0.059-0.012-0.089c0-0.031,0.003-0.062,0.012-0.09c0.002-0.01,0.006-0.019,0.01-0.029
		c0.006-0.018,0.014-0.036,0.022-0.053c0.007-0.013,0.013-0.023,0.02-0.034c0.01-0.015,0.02-0.027,0.03-0.041
		c0.01-0.012,0.019-0.023,0.029-0.035c0.007-0.006,0.016-0.013,0.021-0.019c0.033-0.03,0.069-0.057,0.111-0.081
		c0.004-0.002,0.009-0.005,0.013-0.008c0.023-0.013,0.049-0.024,0.075-0.035c0.004-0.003,0.01-0.004,0.015-0.006
		c0.027-0.011,0.057-0.02,0.085-0.028l0,0v-0.148h-0.938h-0.275h-0.166l-0.413,0.41v0.441l0.413,0.411h0.166h0.275h0.938V14.702z"/>
	<path fill="#FFDE00" d="M51.826,16.546L51.826,16.546c-0.028-0.009-0.058-0.019-0.085-0.028c-0.005-0.003-0.011-0.004-0.015-0.007
		c-0.026-0.011-0.052-0.021-0.075-0.035c-0.004-0.003-0.009-0.004-0.013-0.007c-0.042-0.023-0.078-0.052-0.111-0.081
		c-0.006-0.007-0.015-0.014-0.021-0.02c-0.011-0.011-0.02-0.022-0.029-0.034c-0.011-0.014-0.021-0.026-0.03-0.041
		c-0.007-0.011-0.013-0.021-0.02-0.034c-0.009-0.018-0.017-0.035-0.022-0.054c-0.004-0.009-0.008-0.019-0.01-0.028
		c-0.009-0.029-0.012-0.059-0.012-0.089c0-0.031,0.003-0.062,0.012-0.09c0.002-0.01,0.006-0.019,0.01-0.029
		c0.006-0.018,0.014-0.036,0.022-0.053c0.007-0.013,0.013-0.023,0.02-0.034c0.01-0.015,0.02-0.027,0.03-0.041
		c0.01-0.012,0.019-0.023,0.029-0.035c0.007-0.006,0.016-0.013,0.021-0.019c0.033-0.03,0.069-0.057,0.111-0.081
		c0.004-0.002,0.009-0.005,0.013-0.008c0.023-0.013,0.049-0.024,0.075-0.035c0.004-0.003,0.01-0.004,0.015-0.006
		c0.027-0.011,0.057-0.02,0.085-0.028l0,0V15.48h-0.938h-0.275h-0.166l-0.413,0.41v0.441l0.413,0.411h0.166h0.275h0.938V16.546z"/>
	<path fill="#FFDE00" d="M51.826,18.39L51.826,18.39c-0.028-0.009-0.058-0.019-0.085-0.028c-0.005-0.003-0.011-0.004-0.015-0.007
		c-0.026-0.011-0.052-0.021-0.075-0.035c-0.004-0.003-0.009-0.004-0.013-0.007c-0.042-0.023-0.078-0.052-0.111-0.081
		c-0.006-0.007-0.015-0.014-0.021-0.02c-0.011-0.011-0.02-0.022-0.029-0.034c-0.011-0.014-0.021-0.026-0.03-0.041
		c-0.007-0.011-0.013-0.021-0.02-0.034c-0.009-0.018-0.017-0.035-0.022-0.054c-0.004-0.009-0.008-0.019-0.01-0.028
		c-0.009-0.029-0.012-0.059-0.012-0.089c0-0.031,0.003-0.062,0.012-0.09c0.002-0.01,0.006-0.019,0.01-0.029
		c0.006-0.018,0.014-0.036,0.022-0.053c0.007-0.013,0.013-0.023,0.02-0.034c0.01-0.015,0.02-0.027,0.03-0.041
		c0.01-0.012,0.019-0.023,0.029-0.035c0.007-0.006,0.016-0.013,0.021-0.019c0.033-0.03,0.069-0.057,0.111-0.081
		c0.004-0.002,0.009-0.005,0.013-0.008c0.023-0.013,0.049-0.024,0.075-0.035c0.004-0.003,0.01-0.004,0.015-0.006
		c0.027-0.011,0.057-0.02,0.085-0.028l0,0v-0.148h-0.938h-0.275h-0.166l-0.413,0.41v0.441l0.413,0.411h0.166h0.275h0.938V18.39z"/>
	<path fill="#FFDE00" d="M51.826,20.233L51.826,20.233c-0.028-0.009-0.058-0.019-0.085-0.028c-0.005-0.003-0.011-0.004-0.015-0.007
		c-0.026-0.011-0.052-0.021-0.075-0.035c-0.004-0.003-0.009-0.004-0.013-0.007c-0.042-0.023-0.078-0.052-0.111-0.081
		c-0.006-0.007-0.015-0.014-0.021-0.02c-0.011-0.011-0.02-0.022-0.029-0.034c-0.011-0.014-0.021-0.026-0.03-0.041
		c-0.007-0.011-0.013-0.021-0.02-0.034c-0.009-0.018-0.017-0.035-0.022-0.054c-0.004-0.009-0.008-0.019-0.01-0.028
		c-0.009-0.029-0.012-0.059-0.012-0.089c0-0.031,0.003-0.062,0.012-0.09c0.002-0.01,0.006-0.019,0.01-0.029
		c0.006-0.018,0.014-0.036,0.022-0.053c0.007-0.013,0.013-0.023,0.02-0.034c0.01-0.015,0.02-0.027,0.03-0.041
		c0.01-0.012,0.019-0.023,0.029-0.035c0.007-0.006,0.016-0.013,0.021-0.019c0.033-0.03,0.069-0.057,0.111-0.081
		c0.004-0.002,0.009-0.005,0.013-0.008c0.023-0.013,0.049-0.024,0.075-0.035c0.004-0.003,0.01-0.004,0.015-0.006
		c0.027-0.011,0.057-0.02,0.085-0.028l0,0v-0.148h-0.938h-0.275h-0.166l-0.413,0.41v0.441l0.413,0.411h0.166h0.275h0.938V20.233z"/>
	<path fill="#FFDE00" d="M51.826,22.077L51.826,22.077c-0.028-0.009-0.058-0.019-0.085-0.028c-0.005-0.003-0.011-0.004-0.015-0.007
		c-0.026-0.011-0.052-0.021-0.075-0.035c-0.004-0.003-0.009-0.004-0.013-0.007c-0.042-0.023-0.078-0.052-0.111-0.081
		c-0.006-0.007-0.015-0.014-0.021-0.02c-0.011-0.011-0.02-0.022-0.029-0.034c-0.011-0.014-0.021-0.026-0.03-0.041
		c-0.007-0.011-0.013-0.021-0.02-0.034c-0.009-0.018-0.017-0.035-0.022-0.054c-0.004-0.009-0.008-0.019-0.01-0.028
		c-0.009-0.029-0.012-0.059-0.012-0.089c0-0.031,0.003-0.062,0.012-0.09c0.002-0.01,0.006-0.019,0.01-0.029
		c0.006-0.018,0.014-0.036,0.022-0.053c0.007-0.013,0.013-0.023,0.02-0.034c0.01-0.015,0.02-0.027,0.03-0.041
		c0.01-0.012,0.019-0.023,0.029-0.035c0.007-0.006,0.016-0.013,0.021-0.019c0.033-0.03,0.069-0.057,0.111-0.081
		c0.004-0.002,0.009-0.005,0.013-0.008c0.023-0.013,0.049-0.024,0.075-0.035c0.004-0.003,0.01-0.004,0.015-0.006
		c0.027-0.011,0.057-0.02,0.085-0.028l0,0v-0.148h-0.938h-0.275h-0.166l-0.413,0.41v0.441l0.413,0.411h0.166h0.275h0.938V22.077z"/>
	<path fill="#FFDE00" d="M51.826,23.921L51.826,23.921c-0.028-0.009-0.058-0.019-0.085-0.028c-0.005-0.003-0.011-0.004-0.015-0.007
		c-0.026-0.011-0.052-0.021-0.075-0.035c-0.004-0.003-0.009-0.004-0.013-0.007c-0.042-0.023-0.078-0.052-0.111-0.081
		c-0.006-0.007-0.015-0.014-0.021-0.02c-0.011-0.011-0.02-0.022-0.029-0.034c-0.011-0.014-0.021-0.026-0.03-0.041
		c-0.007-0.011-0.013-0.021-0.02-0.034c-0.009-0.018-0.017-0.035-0.022-0.054c-0.004-0.009-0.008-0.019-0.01-0.028
		c-0.009-0.029-0.012-0.059-0.012-0.089c0-0.031,0.003-0.062,0.012-0.09c0.002-0.01,0.006-0.019,0.01-0.029
		c0.006-0.018,0.014-0.036,0.022-0.053c0.007-0.013,0.013-0.023,0.02-0.034c0.01-0.015,0.02-0.027,0.03-0.041
		c0.01-0.012,0.019-0.023,0.029-0.035c0.007-0.006,0.016-0.013,0.021-0.019c0.033-0.03,0.069-0.057,0.111-0.081
		c0.004-0.002,0.009-0.005,0.013-0.008c0.023-0.013,0.049-0.024,0.075-0.035c0.004-0.003,0.01-0.004,0.015-0.006
		c0.027-0.011,0.057-0.02,0.085-0.028l0,0v-0.148h-0.938h-0.275h-0.166l-0.413,0.41v0.441l0.413,0.411h0.166h0.275h0.938V23.921z"/>
	<path fill="#FFDE00" d="M51.826,25.765L51.826,25.765c-0.028-0.009-0.058-0.019-0.085-0.028c-0.005-0.003-0.011-0.004-0.015-0.007
		c-0.026-0.011-0.052-0.021-0.075-0.035c-0.004-0.003-0.009-0.004-0.013-0.007c-0.042-0.023-0.078-0.052-0.111-0.081
		c-0.006-0.007-0.015-0.014-0.021-0.02c-0.011-0.011-0.02-0.022-0.029-0.034c-0.011-0.014-0.021-0.026-0.03-0.041
		c-0.007-0.011-0.013-0.021-0.02-0.034c-0.009-0.018-0.017-0.035-0.022-0.054c-0.004-0.009-0.008-0.019-0.01-0.028
		c-0.009-0.029-0.012-0.059-0.012-0.089c0-0.031,0.003-0.062,0.012-0.09c0.002-0.01,0.006-0.019,0.01-0.029
		c0.006-0.018,0.014-0.036,0.022-0.053c0.007-0.013,0.013-0.023,0.02-0.034c0.01-0.015,0.02-0.027,0.03-0.041
		c0.01-0.012,0.019-0.023,0.029-0.035c0.007-0.006,0.016-0.013,0.021-0.019c0.033-0.03,0.069-0.057,0.111-0.081
		c0.004-0.002,0.009-0.005,0.013-0.008c0.023-0.013,0.049-0.024,0.075-0.035c0.004-0.003,0.01-0.004,0.015-0.006
		c0.027-0.011,0.057-0.02,0.085-0.028l0,0v-0.148h-0.938h-0.275h-0.166l-0.413,0.41v0.441l0.413,0.411h0.166h0.275h0.938V25.765z"/>
	<path fill="#FFDE00" d="M51.826,27.608L51.826,27.608c-0.028-0.009-0.058-0.019-0.085-0.028c-0.005-0.003-0.011-0.004-0.015-0.007
		c-0.026-0.011-0.052-0.021-0.075-0.035c-0.004-0.003-0.009-0.004-0.013-0.007c-0.042-0.023-0.078-0.052-0.111-0.081
		c-0.006-0.007-0.015-0.014-0.021-0.02c-0.011-0.011-0.02-0.022-0.029-0.034c-0.011-0.014-0.021-0.026-0.03-0.041
		c-0.007-0.011-0.013-0.021-0.02-0.034c-0.009-0.018-0.017-0.035-0.022-0.054c-0.004-0.009-0.008-0.019-0.01-0.028
		c-0.009-0.029-0.012-0.059-0.012-0.089c0-0.031,0.003-0.062,0.012-0.09c0.002-0.01,0.006-0.019,0.01-0.029
		c0.006-0.018,0.014-0.036,0.022-0.053c0.007-0.013,0.013-0.023,0.02-0.034c0.01-0.015,0.02-0.027,0.03-0.041
		c0.01-0.012,0.019-0.023,0.029-0.035c0.007-0.006,0.016-0.013,0.021-0.019c0.033-0.03,0.069-0.057,0.111-0.081
		c0.004-0.002,0.009-0.005,0.013-0.008c0.023-0.013,0.049-0.024,0.075-0.035c0.004-0.003,0.01-0.004,0.015-0.006
		c0.027-0.011,0.057-0.02,0.085-0.028l0,0v-0.148h-0.938h-0.275h-0.166l-0.413,0.41v0.441l0.413,0.411h0.166h0.275h0.938V27.608z"/>
	<path fill="#FFDE00" d="M51.826,29.452L51.826,29.452c-0.028-0.009-0.058-0.019-0.085-0.028c-0.005-0.003-0.011-0.004-0.015-0.007
		c-0.026-0.011-0.052-0.021-0.075-0.035c-0.004-0.003-0.009-0.004-0.013-0.007c-0.042-0.023-0.078-0.052-0.111-0.081
		c-0.006-0.007-0.015-0.014-0.021-0.02c-0.011-0.011-0.02-0.022-0.029-0.034c-0.011-0.014-0.021-0.026-0.03-0.041
		c-0.007-0.011-0.013-0.021-0.02-0.034c-0.009-0.018-0.017-0.035-0.022-0.054c-0.004-0.009-0.008-0.019-0.01-0.028
		c-0.009-0.029-0.012-0.059-0.012-0.089c0-0.031,0.003-0.062,0.012-0.09c0.002-0.01,0.006-0.019,0.01-0.029
		c0.006-0.018,0.014-0.036,0.022-0.053c0.007-0.013,0.013-0.023,0.02-0.034c0.01-0.015,0.02-0.027,0.03-0.041
		c0.01-0.012,0.019-0.023,0.029-0.035c0.007-0.006,0.016-0.013,0.021-0.019c0.033-0.03,0.069-0.057,0.111-0.081
		c0.004-0.002,0.009-0.005,0.013-0.008c0.023-0.013,0.049-0.024,0.075-0.035c0.004-0.003,0.01-0.004,0.015-0.006
		c0.027-0.011,0.057-0.02,0.085-0.028l0,0v-0.148h-0.938h-0.275h-0.166l-0.413,0.41v0.441l0.413,0.411h0.166h0.275h0.938V29.452z"/>
	<path fill="#FFDE00" d="M51.826,31.296L51.826,31.296c-0.028-0.009-0.058-0.019-0.085-0.028c-0.005-0.003-0.011-0.004-0.015-0.007
		c-0.026-0.011-0.052-0.021-0.075-0.035c-0.004-0.003-0.009-0.004-0.013-0.007c-0.042-0.023-0.078-0.052-0.111-0.081
		c-0.006-0.007-0.015-0.014-0.021-0.02c-0.011-0.011-0.02-0.022-0.029-0.034c-0.011-0.014-0.021-0.026-0.03-0.041
		c-0.007-0.011-0.013-0.021-0.02-0.034c-0.009-0.018-0.017-0.035-0.022-0.054c-0.004-0.009-0.008-0.019-0.01-0.028
		c-0.009-0.029-0.012-0.059-0.012-0.089c0-0.031,0.003-0.062,0.012-0.09c0.002-0.01,0.006-0.019,0.01-0.029
		c0.006-0.018,0.014-0.036,0.022-0.053c0.007-0.013,0.013-0.023,0.02-0.034c0.01-0.015,0.02-0.027,0.03-0.041
		c0.01-0.012,0.019-0.023,0.029-0.035c0.007-0.006,0.016-0.013,0.021-0.019c0.033-0.03,0.069-0.057,0.111-0.081
		c0.004-0.002,0.009-0.005,0.013-0.008c0.023-0.013,0.049-0.024,0.075-0.035c0.004-0.003,0.01-0.004,0.015-0.006
		c0.027-0.011,0.057-0.02,0.085-0.028l0,0V30.23h-0.938h-0.275h-0.166l-0.413,0.41v0.441l0.413,0.411h0.166h0.275h0.938V31.296z"/>
	<path fill="#FFDE00" d="M51.826,33.14L51.826,33.14c-0.028-0.009-0.058-0.019-0.085-0.028c-0.005-0.003-0.011-0.004-0.015-0.007
		c-0.026-0.011-0.052-0.021-0.075-0.035c-0.004-0.003-0.009-0.004-0.013-0.007c-0.042-0.023-0.078-0.052-0.111-0.081
		c-0.006-0.007-0.015-0.014-0.021-0.02c-0.011-0.011-0.02-0.022-0.029-0.034c-0.011-0.014-0.021-0.026-0.03-0.041
		c-0.007-0.011-0.013-0.021-0.02-0.034c-0.009-0.018-0.017-0.035-0.022-0.054c-0.004-0.009-0.008-0.019-0.01-0.028
		c-0.009-0.029-0.012-0.059-0.012-0.089c0-0.031,0.003-0.062,0.012-0.09c0.002-0.01,0.006-0.019,0.01-0.029
		c0.006-0.018,0.014-0.036,0.022-0.053c0.007-0.013,0.013-0.023,0.02-0.034c0.01-0.015,0.02-0.027,0.03-0.041
		c0.01-0.012,0.019-0.023,0.029-0.035c0.007-0.006,0.016-0.013,0.021-0.019c0.033-0.03,0.069-0.057,0.111-0.081
		c0.004-0.002,0.009-0.005,0.013-0.008c0.023-0.013,0.049-0.024,0.075-0.035c0.004-0.003,0.01-0.004,0.015-0.006
		c0.027-0.011,0.057-0.02,0.085-0.028l0,0v-0.148h-0.938h-0.275h-0.166l-0.413,0.41v0.441l0.413,0.411h0.166h0.275h0.938V33.14z"/>
	<path fill="#FFDE00" d="M51.826,34.983L51.826,34.983c-0.028-0.009-0.058-0.019-0.085-0.028c-0.005-0.003-0.011-0.004-0.015-0.007
		c-0.026-0.011-0.052-0.021-0.075-0.035c-0.004-0.003-0.009-0.004-0.013-0.007c-0.042-0.023-0.078-0.052-0.111-0.081
		c-0.006-0.007-0.015-0.014-0.021-0.02c-0.011-0.011-0.02-0.022-0.029-0.034c-0.011-0.014-0.021-0.026-0.03-0.041
		c-0.007-0.011-0.013-0.021-0.02-0.034c-0.009-0.018-0.017-0.035-0.022-0.054c-0.004-0.009-0.008-0.019-0.01-0.028
		c-0.009-0.029-0.012-0.059-0.012-0.089c0-0.031,0.003-0.062,0.012-0.09c0.002-0.01,0.006-0.019,0.01-0.029
		c0.006-0.018,0.014-0.036,0.022-0.053c0.007-0.013,0.013-0.023,0.02-0.034c0.01-0.015,0.02-0.027,0.03-0.041
		c0.01-0.012,0.019-0.023,0.029-0.035c0.007-0.006,0.016-0.013,0.021-0.019c0.033-0.03,0.069-0.057,0.111-0.081
		c0.004-0.002,0.009-0.005,0.013-0.008c0.023-0.013,0.049-0.024,0.075-0.035c0.004-0.003,0.01-0.004,0.015-0.006
		c0.027-0.011,0.057-0.02,0.085-0.028l0,0v-0.148h-0.938h-0.275h-0.166l-0.413,0.41v0.441l0.413,0.411h0.166h0.275h0.938V34.983z"/>
	<path fill="#FFDE00" d="M51.826,36.827L51.826,36.827c-0.028-0.009-0.058-0.019-0.085-0.028c-0.005-0.003-0.011-0.004-0.015-0.007
		c-0.026-0.011-0.052-0.021-0.075-0.035c-0.004-0.003-0.009-0.004-0.013-0.007c-0.042-0.023-0.078-0.052-0.111-0.081
		c-0.006-0.007-0.015-0.014-0.021-0.02c-0.011-0.011-0.02-0.022-0.029-0.034c-0.011-0.014-0.021-0.026-0.03-0.041
		c-0.007-0.011-0.013-0.021-0.02-0.034c-0.009-0.018-0.017-0.035-0.022-0.054c-0.004-0.009-0.008-0.019-0.01-0.028
		c-0.009-0.029-0.012-0.059-0.012-0.089c0-0.031,0.003-0.062,0.012-0.09c0.002-0.01,0.006-0.019,0.01-0.029
		c0.006-0.018,0.014-0.036,0.022-0.053c0.007-0.013,0.013-0.023,0.02-0.034c0.01-0.015,0.02-0.027,0.03-0.041
		c0.01-0.012,0.019-0.023,0.029-0.035c0.007-0.006,0.016-0.013,0.021-0.019c0.033-0.03,0.069-0.057,0.111-0.081
		c0.004-0.002,0.009-0.005,0.013-0.008c0.023-0.013,0.049-0.024,0.075-0.035c0.004-0.003,0.01-0.004,0.015-0.006
		c0.027-0.011,0.057-0.02,0.085-0.028l0,0v-0.148h-0.938h-0.275h-0.166l-0.413,0.41v0.441l0.413,0.411h0.166h0.275h0.938V36.827z"/>
	<path fill="#FFDE00" d="M51.826,38.671L51.826,38.671c-0.028-0.009-0.058-0.019-0.085-0.028c-0.005-0.003-0.011-0.004-0.015-0.007
		c-0.026-0.011-0.052-0.021-0.075-0.035c-0.004-0.003-0.009-0.004-0.013-0.007c-0.042-0.023-0.078-0.052-0.111-0.081
		c-0.006-0.007-0.015-0.014-0.021-0.02c-0.011-0.011-0.02-0.022-0.029-0.034c-0.011-0.014-0.021-0.026-0.03-0.041
		c-0.007-0.011-0.013-0.021-0.02-0.034c-0.009-0.018-0.017-0.035-0.022-0.054c-0.004-0.009-0.008-0.019-0.01-0.028
		c-0.009-0.029-0.012-0.059-0.012-0.089c0-0.031,0.003-0.062,0.012-0.09c0.002-0.01,0.006-0.019,0.01-0.029
		c0.006-0.018,0.014-0.036,0.022-0.053c0.007-0.013,0.013-0.023,0.02-0.034c0.01-0.015,0.02-0.027,0.03-0.041
		c0.01-0.012,0.019-0.023,0.029-0.035c0.007-0.006,0.016-0.013,0.021-0.019c0.033-0.03,0.069-0.057,0.111-0.081
		c0.004-0.002,0.009-0.005,0.013-0.008c0.023-0.013,0.049-0.024,0.075-0.035c0.004-0.003,0.01-0.004,0.015-0.006
		c0.027-0.011,0.057-0.02,0.085-0.028l0,0v-0.148h-0.938h-0.275h-0.166l-0.413,0.41v0.441l0.413,0.411h0.166h0.275h0.938V38.671z"/>
	<path fill="#FFDE00" d="M51.826,40.515L51.826,40.515c-0.028-0.009-0.058-0.019-0.085-0.028c-0.005-0.003-0.011-0.004-0.015-0.007
		c-0.026-0.011-0.052-0.021-0.075-0.035c-0.004-0.003-0.009-0.004-0.013-0.007c-0.042-0.023-0.078-0.052-0.111-0.081
		c-0.006-0.007-0.015-0.014-0.021-0.02c-0.011-0.011-0.02-0.022-0.029-0.034c-0.011-0.014-0.021-0.026-0.03-0.041
		c-0.007-0.011-0.013-0.021-0.02-0.034c-0.009-0.018-0.017-0.035-0.022-0.054c-0.004-0.009-0.008-0.019-0.01-0.028
		c-0.009-0.029-0.012-0.059-0.012-0.089c0-0.031,0.003-0.062,0.012-0.09c0.002-0.01,0.006-0.019,0.01-0.029
		c0.006-0.018,0.014-0.036,0.022-0.053c0.007-0.013,0.013-0.023,0.02-0.034c0.01-0.015,0.02-0.027,0.03-0.041
		c0.01-0.012,0.019-0.023,0.029-0.035c0.007-0.006,0.016-0.013,0.021-0.019c0.033-0.03,0.069-0.057,0.111-0.081
		c0.004-0.002,0.009-0.005,0.013-0.008c0.023-0.013,0.049-0.024,0.075-0.035c0.004-0.003,0.01-0.004,0.015-0.006
		c0.027-0.011,0.057-0.02,0.085-0.028l0,0v-0.148h-0.938h-0.275h-0.166l-0.413,0.41v0.441l0.413,0.411h0.166h0.275h0.938V40.515z"/>
</g>
<path fill="#FFDE00" d="M24.465,37.804L24.465,37.804c0.028,0.009,0.058,0.019,0.085,0.028c0.005,0.003,0.011,0.004,0.015,0.007
	c0.026,0.011,0.052,0.021,0.075,0.035c0.004,0.003,0.009,0.004,0.013,0.007c0.042,0.023,0.078,0.052,0.111,0.081
	c0.006,0.007,0.015,0.014,0.021,0.02c0.011,0.011,0.02,0.022,0.029,0.034c0.011,0.014,0.021,0.026,0.03,0.041
	c0.007,0.011,0.013,0.021,0.02,0.034c0.009,0.018,0.017,0.035,0.022,0.054c0.004,0.009,0.008,0.019,0.01,0.028
	c0.009,0.029,0.012,0.059,0.012,0.089c0,0.031-0.003,0.062-0.012,0.09c-0.002,0.01-0.006,0.019-0.01,0.029
	c-0.006,0.018-0.014,0.036-0.022,0.053c-0.007,0.013-0.013,0.023-0.02,0.034c-0.01,0.015-0.02,0.027-0.03,0.041
	c-0.01,0.012-0.019,0.023-0.029,0.035c-0.007,0.006-0.016,0.013-0.021,0.019c-0.033,0.03-0.069,0.057-0.111,0.081
	c-0.004,0.002-0.009,0.005-0.013,0.008c-0.023,0.013-0.049,0.024-0.075,0.035c-0.004,0.003-0.01,0.004-0.015,0.006
	c-0.027,0.011-0.057,0.02-0.085,0.028l0,0v0.148h0.938h0.275h0.166l0.413-0.41v-0.441l-0.413-0.411h-0.166h-0.275h-0.938V37.804z"/>
<path fill="#FFDE00" d="M27.224,45.644L27.224,45.644c0.008-0.028,0.016-0.058,0.023-0.085c0.002-0.005,0.003-0.011,0.005-0.015
	c0.01-0.026,0.018-0.052,0.028-0.075c0.004-0.004,0.004-0.009,0.007-0.013c0.019-0.042,0.041-0.078,0.065-0.111
	c0.006-0.006,0.011-0.015,0.016-0.021c0.01-0.011,0.019-0.02,0.028-0.029c0.012-0.011,0.021-0.021,0.033-0.03
	c0.009-0.007,0.018-0.013,0.027-0.02c0.015-0.009,0.029-0.017,0.045-0.022c0.006-0.004,0.014-0.008,0.022-0.01
	c0.023-0.009,0.047-0.012,0.073-0.012c0.025,0,0.049,0.003,0.072,0.012c0.009,0.002,0.015,0.006,0.024,0.01
	c0.015,0.006,0.028,0.014,0.043,0.022c0.01,0.007,0.019,0.013,0.027,0.02c0.013,0.01,0.021,0.02,0.033,0.03
	c0.01,0.01,0.019,0.019,0.028,0.029c0.005,0.007,0.012,0.016,0.016,0.021c0.024,0.033,0.047,0.069,0.065,0.111
	c0.002,0.004,0.005,0.009,0.007,0.013c0.011,0.023,0.021,0.049,0.028,0.075c0.003,0.004,0.003,0.01,0.005,0.015
	c0.01,0.027,0.016,0.057,0.023,0.085l0,0h0.121v-0.938V44.43v-0.166l-0.334-0.413h-0.359l-0.336,0.413v0.166v0.275v0.938H27.224z"/>
<path fill="#FFDE00" d="M29.13,45.644L29.13,45.644c0.008-0.028,0.016-0.058,0.023-0.085c0.002-0.005,0.003-0.011,0.005-0.015
	c0.01-0.026,0.018-0.052,0.028-0.075c0.004-0.004,0.004-0.009,0.007-0.013c0.019-0.042,0.041-0.078,0.065-0.111
	c0.006-0.006,0.011-0.015,0.016-0.021c0.01-0.011,0.019-0.02,0.028-0.029c0.012-0.011,0.021-0.021,0.033-0.03
	c0.009-0.007,0.018-0.013,0.027-0.02c0.015-0.009,0.029-0.017,0.045-0.022c0.006-0.004,0.014-0.008,0.022-0.01
	c0.023-0.009,0.047-0.012,0.073-0.012c0.025,0,0.049,0.003,0.072,0.012c0.009,0.002,0.015,0.006,0.024,0.01
	c0.015,0.006,0.028,0.014,0.043,0.022c0.01,0.007,0.019,0.013,0.027,0.02c0.013,0.01,0.021,0.02,0.033,0.03
	c0.01,0.01,0.019,0.019,0.028,0.029c0.005,0.007,0.012,0.016,0.016,0.021c0.024,0.033,0.047,0.069,0.065,0.111
	c0.002,0.004,0.005,0.009,0.007,0.013c0.011,0.023,0.021,0.049,0.028,0.075c0.003,0.004,0.003,0.01,0.005,0.015
	c0.01,0.027,0.016,0.057,0.023,0.085l0,0h0.121v-0.938V44.43v-0.166l-0.334-0.413h-0.359l-0.336,0.413v0.166v0.275v0.938H29.13z"/>
<path fill="#FFDE00" d="M31.036,45.644L31.036,45.644c0.008-0.028,0.016-0.058,0.023-0.085c0.002-0.005,0.003-0.011,0.005-0.015
	c0.01-0.026,0.018-0.052,0.028-0.075c0.004-0.004,0.004-0.009,0.007-0.013c0.019-0.042,0.041-0.078,0.065-0.111
	c0.006-0.006,0.011-0.015,0.016-0.021c0.01-0.011,0.019-0.02,0.028-0.029c0.012-0.011,0.021-0.021,0.033-0.03
	c0.009-0.007,0.018-0.013,0.027-0.02c0.015-0.009,0.029-0.017,0.045-0.022c0.006-0.004,0.014-0.008,0.022-0.01
	c0.023-0.009,0.047-0.012,0.073-0.012c0.025,0,0.049,0.003,0.072,0.012c0.009,0.002,0.015,0.006,0.024,0.01
	c0.015,0.006,0.028,0.014,0.043,0.022c0.01,0.007,0.019,0.013,0.027,0.02c0.013,0.01,0.021,0.02,0.033,0.03
	c0.01,0.01,0.019,0.019,0.028,0.029c0.005,0.007,0.012,0.016,0.016,0.021c0.024,0.033,0.047,0.069,0.065,0.111
	c0.002,0.004,0.005,0.009,0.007,0.013c0.011,0.023,0.021,0.049,0.028,0.075c0.003,0.004,0.003,0.01,0.005,0.015
	c0.01,0.027,0.016,0.057,0.023,0.085l0,0h0.121v-0.938V44.43v-0.166l-0.334-0.413h-0.359l-0.336,0.413v0.166v0.275v0.938H31.036z"/>
<path fill="#FFDE00" d="M32.942,45.644L32.942,45.644c0.008-0.028,0.016-0.058,0.023-0.085c0.002-0.005,0.003-0.011,0.005-0.015
	c0.01-0.026,0.018-0.052,0.028-0.075c0.004-0.004,0.004-0.009,0.007-0.013c0.019-0.042,0.041-0.078,0.065-0.111
	c0.006-0.006,0.011-0.015,0.016-0.021c0.01-0.011,0.019-0.02,0.028-0.029c0.012-0.011,0.021-0.021,0.033-0.03
	c0.009-0.007,0.018-0.013,0.027-0.02c0.015-0.009,0.029-0.017,0.045-0.022c0.006-0.004,0.014-0.008,0.022-0.01
	c0.023-0.009,0.047-0.012,0.073-0.012c0.025,0,0.049,0.003,0.072,0.012c0.009,0.002,0.015,0.006,0.024,0.01
	c0.015,0.006,0.028,0.014,0.043,0.022c0.01,0.007,0.019,0.013,0.027,0.02c0.013,0.01,0.021,0.02,0.033,0.03
	c0.01,0.01,0.019,0.019,0.028,0.029c0.005,0.007,0.012,0.016,0.016,0.021c0.024,0.033,0.047,0.069,0.065,0.111
	c0.002,0.004,0.005,0.009,0.007,0.013c0.011,0.023,0.021,0.049,0.028,0.075c0.003,0.004,0.003,0.01,0.005,0.015
	c0.01,0.027,0.016,0.057,0.023,0.085l0,0h0.121v-0.938V44.43v-0.166l-0.334-0.413h-0.359l-0.336,0.413v0.166v0.275v0.938H32.942z"/>
<path fill="#FFDE00" d="M34.849,45.644L34.849,45.644c0.008-0.028,0.016-0.058,0.023-0.085c0.002-0.005,0.003-0.011,0.005-0.015
	c0.01-0.026,0.018-0.052,0.028-0.075c0.004-0.004,0.004-0.009,0.007-0.013c0.019-0.042,0.041-0.078,0.065-0.111
	c0.006-0.006,0.011-0.015,0.016-0.021c0.01-0.011,0.019-0.02,0.028-0.029c0.012-0.011,0.021-0.021,0.033-0.03
	c0.009-0.007,0.018-0.013,0.027-0.02c0.015-0.009,0.029-0.017,0.045-0.022c0.006-0.004,0.014-0.008,0.022-0.01
	c0.023-0.009,0.047-0.012,0.073-0.012c0.025,0,0.049,0.003,0.072,0.012c0.009,0.002,0.015,0.006,0.024,0.01
	c0.015,0.006,0.028,0.014,0.043,0.022c0.01,0.007,0.019,0.013,0.027,0.02c0.013,0.01,0.021,0.02,0.033,0.03
	c0.01,0.01,0.019,0.019,0.028,0.029c0.005,0.007,0.012,0.016,0.016,0.021c0.024,0.033,0.047,0.069,0.065,0.111
	c0.002,0.004,0.005,0.009,0.007,0.013c0.011,0.023,0.021,0.049,0.028,0.075c0.003,0.004,0.003,0.01,0.005,0.015
	c0.01,0.027,0.016,0.057,0.023,0.085l0,0h0.121v-0.938V44.43v-0.166l-0.334-0.413h-0.359l-0.336,0.413v0.166v0.275v0.938H34.849z"/>
<path fill="#FFDE00" d="M36.755,45.644L36.755,45.644c0.008-0.028,0.016-0.058,0.023-0.085c0.002-0.005,0.003-0.011,0.005-0.015
	c0.01-0.026,0.018-0.052,0.028-0.075c0.004-0.004,0.004-0.009,0.007-0.013c0.019-0.042,0.041-0.078,0.065-0.111
	c0.006-0.006,0.011-0.015,0.016-0.021c0.01-0.011,0.019-0.02,0.028-0.029c0.012-0.011,0.021-0.021,0.033-0.03
	c0.009-0.007,0.018-0.013,0.027-0.02c0.015-0.009,0.029-0.017,0.045-0.022c0.006-0.004,0.014-0.008,0.022-0.01
	c0.023-0.009,0.047-0.012,0.073-0.012c0.025,0,0.049,0.003,0.072,0.012c0.009,0.002,0.015,0.006,0.024,0.01
	c0.015,0.006,0.028,0.014,0.043,0.022c0.01,0.007,0.019,0.013,0.027,0.02c0.013,0.01,0.021,0.02,0.033,0.03
	c0.01,0.01,0.019,0.019,0.028,0.029c0.005,0.007,0.012,0.016,0.016,0.021c0.024,0.033,0.047,0.069,0.065,0.111
	c0.002,0.004,0.005,0.009,0.007,0.013c0.011,0.023,0.021,0.049,0.028,0.075c0.003,0.004,0.003,0.01,0.005,0.015
	c0.01,0.027,0.016,0.057,0.023,0.085l0,0h0.121v-0.938V44.43v-0.166l-0.334-0.413H36.93l-0.336,0.413v0.166v0.275v0.938H36.755z"/>
<path fill="#FFDE00" d="M38.661,45.644L38.661,45.644c0.008-0.028,0.016-0.058,0.023-0.085c0.002-0.005,0.003-0.011,0.005-0.015
	c0.01-0.026,0.018-0.052,0.028-0.075c0.004-0.004,0.004-0.009,0.007-0.013c0.019-0.042,0.041-0.078,0.065-0.111
	c0.006-0.006,0.011-0.015,0.016-0.021c0.01-0.011,0.019-0.02,0.028-0.029c0.012-0.011,0.021-0.021,0.033-0.03
	c0.009-0.007,0.018-0.013,0.027-0.02c0.015-0.009,0.029-0.017,0.045-0.022c0.006-0.004,0.014-0.008,0.022-0.01
	c0.023-0.009,0.047-0.012,0.073-0.012c0.025,0,0.049,0.003,0.072,0.012c0.009,0.002,0.015,0.006,0.024,0.01
	c0.015,0.006,0.028,0.014,0.043,0.022c0.01,0.007,0.019,0.013,0.027,0.02c0.013,0.01,0.021,0.02,0.033,0.03
	c0.01,0.01,0.019,0.019,0.028,0.029c0.005,0.007,0.012,0.016,0.016,0.021c0.024,0.033,0.047,0.069,0.065,0.111
	c0.002,0.004,0.005,0.009,0.007,0.013c0.011,0.023,0.021,0.049,0.028,0.075c0.003,0.004,0.003,0.01,0.005,0.015
	c0.01,0.027,0.016,0.057,0.023,0.085l0,0h0.121v-0.938V44.43v-0.166l-0.334-0.413h-0.359L38.5,44.264v0.166v0.275v0.938H38.661z"/>
<path fill="#FFDE00" d="M40.567,45.644L40.567,45.644c0.008-0.028,0.016-0.058,0.023-0.085c0.002-0.005,0.003-0.011,0.005-0.015
	c0.01-0.026,0.018-0.052,0.028-0.075c0.004-0.004,0.004-0.009,0.007-0.013c0.019-0.042,0.041-0.078,0.065-0.111
	c0.006-0.006,0.011-0.015,0.016-0.021c0.01-0.011,0.019-0.02,0.028-0.029c0.012-0.011,0.021-0.021,0.033-0.03
	c0.009-0.007,0.018-0.013,0.027-0.02c0.015-0.009,0.029-0.017,0.045-0.022c0.006-0.004,0.014-0.008,0.022-0.01
	c0.023-0.009,0.047-0.012,0.073-0.012c0.025,0,0.049,0.003,0.072,0.012c0.009,0.002,0.015,0.006,0.024,0.01
	c0.015,0.006,0.028,0.014,0.043,0.022c0.01,0.007,0.019,0.013,0.027,0.02c0.013,0.01,0.021,0.02,0.033,0.03
	c0.01,0.01,0.019,0.019,0.028,0.029c0.005,0.007,0.012,0.016,0.016,0.021c0.024,0.033,0.047,0.069,0.065,0.111
	c0.002,0.004,0.005,0.009,0.007,0.013c0.011,0.023,0.021,0.049,0.028,0.075c0.003,0.004,0.003,0.01,0.005,0.015
	c0.01,0.027,0.016,0.057,0.023,0.085l0,0h0.121v-0.938V44.43v-0.166l-0.334-0.413h-0.359l-0.336,0.413v0.166v0.275v0.938H40.567z"/>
<path fill="#FFDE00" d="M42.474,45.644L42.474,45.644c0.008-0.028,0.016-0.058,0.023-0.085c0.002-0.005,0.003-0.011,0.005-0.015
	c0.01-0.026,0.018-0.052,0.028-0.075c0.004-0.004,0.004-0.009,0.007-0.013c0.019-0.042,0.041-0.078,0.065-0.111
	c0.006-0.006,0.011-0.015,0.016-0.021c0.01-0.011,0.019-0.02,0.028-0.029c0.012-0.011,0.021-0.021,0.033-0.03
	c0.009-0.007,0.018-0.013,0.027-0.02c0.015-0.009,0.029-0.017,0.045-0.022c0.006-0.004,0.014-0.008,0.022-0.01
	c0.023-0.009,0.047-0.012,0.073-0.012c0.025,0,0.049,0.003,0.072,0.012c0.009,0.002,0.015,0.006,0.024,0.01
	c0.015,0.006,0.028,0.014,0.043,0.022c0.01,0.007,0.019,0.013,0.027,0.02c0.013,0.01,0.021,0.02,0.033,0.03
	c0.01,0.01,0.019,0.019,0.028,0.029c0.005,0.007,0.012,0.016,0.016,0.021c0.024,0.033,0.047,0.069,0.065,0.111
	c0.002,0.004,0.005,0.009,0.007,0.013c0.011,0.023,0.021,0.049,0.028,0.075c0.003,0.004,0.003,0.01,0.005,0.015
	c0.01,0.027,0.016,0.057,0.023,0.085l0,0h0.121v-0.938V44.43v-0.166l-0.334-0.413h-0.359l-0.336,0.413v0.166v0.275v0.938H42.474z"/>
<path fill="#FFDE00" d="M44.38,45.644L44.38,45.644c0.008-0.028,0.016-0.058,0.023-0.085c0.002-0.005,0.003-0.011,0.005-0.015
	c0.01-0.026,0.018-0.052,0.028-0.075c0.004-0.004,0.004-0.009,0.007-0.013c0.019-0.042,0.041-0.078,0.065-0.111
	c0.006-0.006,0.011-0.015,0.016-0.021c0.01-0.011,0.019-0.02,0.028-0.029c0.012-0.011,0.021-0.021,0.033-0.03
	c0.009-0.007,0.018-0.013,0.027-0.02c0.015-0.009,0.029-0.017,0.045-0.022c0.006-0.004,0.014-0.008,0.022-0.01
	c0.023-0.009,0.047-0.012,0.073-0.012c0.025,0,0.049,0.003,0.072,0.012c0.009,0.002,0.015,0.006,0.024,0.01
	c0.015,0.006,0.028,0.014,0.043,0.022c0.01,0.007,0.019,0.013,0.027,0.02c0.013,0.01,0.021,0.02,0.033,0.03
	c0.01,0.01,0.019,0.019,0.028,0.029c0.005,0.007,0.012,0.016,0.016,0.021c0.024,0.033,0.047,0.069,0.065,0.111
	c0.002,0.004,0.005,0.009,0.007,0.013c0.011,0.023,0.021,0.049,0.028,0.075c0.003,0.004,0.003,0.01,0.005,0.015
	c0.01,0.027,0.016,0.057,0.023,0.085l0,0h0.121v-0.938V44.43v-0.166l-0.334-0.413h-0.359l-0.336,0.413v0.166v0.275v0.938H44.38z"/>
<path fill="#FFDE00" d="M46.286,45.644L46.286,45.644c0.008-0.028,0.016-0.058,0.023-0.085c0.002-0.005,0.003-0.011,0.005-0.015
	c0.01-0.026,0.018-0.052,0.028-0.075c0.004-0.004,0.004-0.009,0.007-0.013c0.019-0.042,0.041-0.078,0.065-0.111
	c0.006-0.006,0.011-0.015,0.016-0.021c0.01-0.011,0.019-0.02,0.028-0.029c0.012-0.011,0.021-0.021,0.033-0.03
	c0.009-0.007,0.018-0.013,0.027-0.02c0.015-0.009,0.029-0.017,0.045-0.022c0.006-0.004,0.014-0.008,0.022-0.01
	c0.023-0.009,0.047-0.012,0.073-0.012c0.025,0,0.049,0.003,0.072,0.012c0.009,0.002,0.015,0.006,0.024,0.01
	c0.015,0.006,0.028,0.014,0.043,0.022c0.01,0.007,0.019,0.013,0.027,0.02c0.013,0.01,0.021,0.02,0.033,0.03
	c0.01,0.01,0.019,0.019,0.028,0.029c0.005,0.007,0.012,0.016,0.016,0.021c0.024,0.033,0.047,0.069,0.065,0.111
	c0.002,0.004,0.005,0.009,0.007,0.013c0.011,0.023,0.021,0.049,0.028,0.075c0.003,0.004,0.003,0.01,0.005,0.015
	c0.01,0.027,0.016,0.057,0.023,0.085l0,0h0.121v-0.938V44.43v-0.166l-0.334-0.413h-0.359l-0.336,0.413v0.166v0.275v0.938H46.286z"/>
<path fill="#FFDE00" d="M48.192,45.644L48.192,45.644c0.008-0.028,0.016-0.058,0.023-0.085c0.002-0.005,0.003-0.011,0.005-0.015
	c0.01-0.026,0.018-0.052,0.028-0.075c0.004-0.004,0.004-0.009,0.007-0.013c0.019-0.042,0.041-0.078,0.065-0.111
	c0.006-0.006,0.011-0.015,0.016-0.021c0.01-0.011,0.019-0.02,0.028-0.029c0.012-0.011,0.021-0.021,0.033-0.03
	c0.009-0.007,0.018-0.013,0.027-0.02c0.015-0.009,0.029-0.017,0.045-0.022c0.006-0.004,0.014-0.008,0.022-0.01
	c0.023-0.009,0.047-0.012,0.073-0.012c0.025,0,0.049,0.003,0.072,0.012c0.009,0.002,0.015,0.006,0.024,0.01
	c0.015,0.006,0.028,0.014,0.043,0.022c0.01,0.007,0.019,0.013,0.027,0.02c0.013,0.01,0.021,0.02,0.033,0.03
	c0.01,0.01,0.019,0.019,0.028,0.029c0.005,0.007,0.012,0.016,0.016,0.021c0.024,0.033,0.047,0.069,0.065,0.111
	c0.002,0.004,0.005,0.009,0.007,0.013c0.011,0.023,0.021,0.049,0.028,0.075c0.003,0.004,0.003,0.01,0.005,0.015
	c0.01,0.027,0.016,0.057,0.023,0.085l0,0h0.121v-0.938V44.43v-0.166l-0.334-0.413h-0.359l-0.336,0.413v0.166v0.275v0.938H48.192z"/>
<path fill="#FFDE00" d="M24.465,35.96L24.465,35.96c0.028,0.009,0.058,0.019,0.085,0.028c0.005,0.003,0.011,0.004,0.015,0.007
	c0.026,0.011,0.052,0.021,0.075,0.035c0.004,0.003,0.009,0.004,0.013,0.007c0.042,0.023,0.078,0.052,0.111,0.081
	c0.006,0.007,0.015,0.014,0.021,0.02c0.011,0.011,0.02,0.022,0.029,0.034c0.011,0.014,0.021,0.026,0.03,0.041
	c0.007,0.011,0.013,0.021,0.02,0.034c0.009,0.018,0.017,0.035,0.022,0.054c0.004,0.009,0.008,0.019,0.01,0.028
	c0.009,0.029,0.012,0.059,0.012,0.089c0,0.031-0.003,0.062-0.012,0.09c-0.002,0.01-0.006,0.019-0.01,0.029
	c-0.006,0.018-0.014,0.036-0.022,0.053c-0.007,0.013-0.013,0.023-0.02,0.034c-0.01,0.015-0.02,0.027-0.03,0.041
	c-0.01,0.012-0.019,0.023-0.029,0.035c-0.007,0.006-0.016,0.013-0.021,0.019c-0.033,0.03-0.069,0.057-0.111,0.081
	c-0.004,0.002-0.009,0.005-0.013,0.008c-0.023,0.013-0.049,0.024-0.075,0.035c-0.004,0.003-0.01,0.004-0.015,0.006
	c-0.027,0.011-0.057,0.02-0.085,0.028l0,0v0.148h0.938h0.275h0.166l0.413-0.41v-0.441l-0.413-0.411h-0.166h-0.275h-0.938V35.96z"/>
<path fill="#FFDE00" d="M24.465,34.116L24.465,34.116c0.028,0.009,0.058,0.019,0.085,0.028c0.005,0.003,0.011,0.004,0.015,0.007
	c0.026,0.011,0.052,0.021,0.075,0.035c0.004,0.003,0.009,0.004,0.013,0.007c0.042,0.023,0.078,0.052,0.111,0.081
	c0.006,0.007,0.015,0.014,0.021,0.02c0.011,0.011,0.02,0.022,0.029,0.034c0.011,0.014,0.021,0.026,0.03,0.041
	c0.007,0.011,0.013,0.021,0.02,0.034c0.009,0.018,0.017,0.035,0.022,0.054c0.004,0.009,0.008,0.019,0.01,0.028
	c0.009,0.029,0.012,0.059,0.012,0.089c0,0.031-0.003,0.062-0.012,0.09c-0.002,0.01-0.006,0.019-0.01,0.029
	c-0.006,0.018-0.014,0.036-0.022,0.053c-0.007,0.013-0.013,0.023-0.02,0.034c-0.01,0.015-0.02,0.027-0.03,0.041
	c-0.01,0.012-0.019,0.023-0.029,0.035c-0.007,0.006-0.016,0.013-0.021,0.019c-0.033,0.03-0.069,0.057-0.111,0.081
	c-0.004,0.002-0.009,0.005-0.013,0.008c-0.023,0.013-0.049,0.024-0.075,0.035c-0.004,0.003-0.01,0.004-0.015,0.006
	c-0.027,0.011-0.057,0.02-0.085,0.028l0,0v0.148h0.938h0.275h0.166l0.413-0.41V34.33l-0.413-0.411h-0.166h-0.275h-0.938V34.116z"/>
<path fill="#FFDE00" d="M24.465,32.272L24.465,32.272c0.028,0.009,0.058,0.019,0.085,0.028c0.005,0.003,0.011,0.004,0.015,0.007
	c0.026,0.011,0.052,0.021,0.075,0.035c0.004,0.003,0.009,0.004,0.013,0.007c0.042,0.023,0.078,0.052,0.111,0.081
	c0.006,0.007,0.015,0.014,0.021,0.02c0.011,0.011,0.02,0.022,0.029,0.034c0.011,0.014,0.021,0.026,0.03,0.041
	c0.007,0.011,0.013,0.021,0.02,0.034c0.009,0.018,0.017,0.035,0.022,0.054c0.004,0.009,0.008,0.019,0.01,0.028
	c0.009,0.029,0.012,0.059,0.012,0.089c0,0.031-0.003,0.062-0.012,0.09c-0.002,0.01-0.006,0.019-0.01,0.029
	c-0.006,0.018-0.014,0.036-0.022,0.053c-0.007,0.013-0.013,0.023-0.02,0.034c-0.01,0.015-0.02,0.027-0.03,0.041
	c-0.01,0.012-0.019,0.023-0.029,0.035c-0.007,0.006-0.016,0.013-0.021,0.019c-0.033,0.03-0.069,0.057-0.111,0.081
	c-0.004,0.002-0.009,0.005-0.013,0.008c-0.023,0.013-0.049,0.024-0.075,0.035c-0.004,0.003-0.01,0.004-0.015,0.006
	c-0.027,0.011-0.057,0.02-0.085,0.028l0,0v0.148h0.938h0.275h0.166l0.413-0.41v-0.441l-0.413-0.411h-0.166h-0.275h-0.938V32.272z"/>
<path fill="#FFDE00" d="M24.465,30.429L24.465,30.429c0.028,0.009,0.058,0.019,0.085,0.028c0.005,0.003,0.011,0.004,0.015,0.007
	c0.026,0.011,0.052,0.021,0.075,0.035c0.004,0.003,0.009,0.004,0.013,0.007c0.042,0.023,0.078,0.052,0.111,0.081
	c0.006,0.007,0.015,0.014,0.021,0.02c0.011,0.011,0.02,0.022,0.029,0.034c0.011,0.014,0.021,0.026,0.03,0.041
	c0.007,0.011,0.013,0.021,0.02,0.034c0.009,0.018,0.017,0.035,0.022,0.054c0.004,0.009,0.008,0.019,0.01,0.028
	c0.009,0.029,0.012,0.059,0.012,0.089c0,0.031-0.003,0.062-0.012,0.09c-0.002,0.01-0.006,0.019-0.01,0.029
	c-0.006,0.018-0.014,0.036-0.022,0.053c-0.007,0.013-0.013,0.023-0.02,0.034c-0.01,0.015-0.02,0.027-0.03,0.041
	c-0.01,0.012-0.019,0.023-0.029,0.035c-0.007,0.006-0.016,0.013-0.021,0.019c-0.033,0.03-0.069,0.057-0.111,0.081
	c-0.004,0.002-0.009,0.005-0.013,0.008c-0.023,0.013-0.049,0.024-0.075,0.035c-0.004,0.003-0.01,0.004-0.015,0.006
	c-0.027,0.011-0.057,0.02-0.085,0.028l0,0v0.148h0.938h0.275h0.166l0.413-0.41v-0.441l-0.413-0.411h-0.166h-0.275h-0.938V30.429z"/>
<path fill="#FFDE00" d="M24.465,28.585L24.465,28.585c0.028,0.009,0.058,0.019,0.085,0.028c0.005,0.003,0.011,0.004,0.015,0.007
	c0.026,0.011,0.052,0.021,0.075,0.035c0.004,0.003,0.009,0.004,0.013,0.007c0.042,0.023,0.078,0.052,0.111,0.081
	c0.006,0.007,0.015,0.014,0.021,0.02c0.011,0.011,0.02,0.022,0.029,0.034c0.011,0.014,0.021,0.026,0.03,0.041
	c0.007,0.011,0.013,0.021,0.02,0.034c0.009,0.018,0.017,0.035,0.022,0.054c0.004,0.009,0.008,0.019,0.01,0.028
	c0.009,0.029,0.012,0.059,0.012,0.089c0,0.031-0.003,0.062-0.012,0.09c-0.002,0.01-0.006,0.019-0.01,0.029
	c-0.006,0.018-0.014,0.036-0.022,0.053c-0.007,0.013-0.013,0.023-0.02,0.034c-0.01,0.015-0.02,0.027-0.03,0.041
	c-0.01,0.012-0.019,0.023-0.029,0.035c-0.007,0.006-0.016,0.013-0.021,0.019c-0.033,0.03-0.069,0.057-0.111,0.081
	c-0.004,0.002-0.009,0.005-0.013,0.008c-0.023,0.013-0.049,0.024-0.075,0.035c-0.004,0.003-0.01,0.004-0.015,0.006
	c-0.027,0.011-0.057,0.02-0.085,0.028l0,0v0.148h0.938h0.275h0.166l0.413-0.41v-0.441l-0.413-0.411h-0.166h-0.275h-0.938V28.585z"/>
<path fill="#FFDE00" d="M24.465,26.741L24.465,26.741c0.028,0.009,0.058,0.019,0.085,0.028c0.005,0.003,0.011,0.004,0.015,0.007
	c0.026,0.011,0.052,0.021,0.075,0.035c0.004,0.003,0.009,0.004,0.013,0.007c0.042,0.023,0.078,0.052,0.111,0.081
	c0.006,0.007,0.015,0.014,0.021,0.02c0.011,0.011,0.02,0.022,0.029,0.034c0.011,0.014,0.021,0.026,0.03,0.041
	c0.007,0.011,0.013,0.021,0.02,0.034c0.009,0.018,0.017,0.035,0.022,0.054c0.004,0.009,0.008,0.019,0.01,0.028
	c0.009,0.029,0.012,0.059,0.012,0.089c0,0.031-0.003,0.062-0.012,0.09c-0.002,0.01-0.006,0.019-0.01,0.029
	c-0.006,0.018-0.014,0.036-0.022,0.053c-0.007,0.013-0.013,0.023-0.02,0.034c-0.01,0.015-0.02,0.027-0.03,0.041
	c-0.01,0.012-0.019,0.023-0.029,0.035c-0.007,0.006-0.016,0.013-0.021,0.019c-0.033,0.03-0.069,0.057-0.111,0.081
	c-0.004,0.002-0.009,0.005-0.013,0.008c-0.023,0.013-0.049,0.024-0.075,0.035c-0.004,0.003-0.01,0.004-0.015,0.006
	c-0.027,0.011-0.057,0.02-0.085,0.028l0,0v0.148h0.938h0.275h0.166l0.413-0.41v-0.441l-0.413-0.411h-0.166h-0.275h-0.938V26.741z"/>
<path fill="#FFDE00" d="M24.465,24.897L24.465,24.897c0.028,0.009,0.058,0.019,0.085,0.028c0.005,0.003,0.011,0.004,0.015,0.007
	c0.026,0.011,0.052,0.021,0.075,0.035c0.004,0.003,0.009,0.004,0.013,0.007c0.042,0.023,0.078,0.052,0.111,0.081
	c0.006,0.007,0.015,0.014,0.021,0.02c0.011,0.011,0.02,0.022,0.029,0.034c0.011,0.014,0.021,0.026,0.03,0.041
	c0.007,0.011,0.013,0.021,0.02,0.034c0.009,0.018,0.017,0.035,0.022,0.054c0.004,0.009,0.008,0.019,0.01,0.028
	c0.009,0.029,0.012,0.059,0.012,0.089c0,0.031-0.003,0.062-0.012,0.09c-0.002,0.01-0.006,0.019-0.01,0.029
	c-0.006,0.018-0.014,0.036-0.022,0.053c-0.007,0.013-0.013,0.023-0.02,0.034c-0.01,0.015-0.02,0.027-0.03,0.041
	c-0.01,0.012-0.019,0.023-0.029,0.035c-0.007,0.006-0.016,0.013-0.021,0.019c-0.033,0.03-0.069,0.057-0.111,0.081
	c-0.004,0.002-0.009,0.005-0.013,0.008c-0.023,0.013-0.049,0.024-0.075,0.035c-0.004,0.003-0.01,0.004-0.015,0.006
	c-0.027,0.011-0.057,0.02-0.085,0.028l0,0v0.148h0.938h0.275h0.166l0.413-0.41v-0.441L25.845,24.7h-0.166h-0.275h-0.938V24.897z"/>
<path fill="#FFDE00" d="M24.465,23.054L24.465,23.054c0.028,0.009,0.058,0.019,0.085,0.028c0.005,0.003,0.011,0.004,0.015,0.007
	c0.026,0.011,0.052,0.021,0.075,0.035c0.004,0.003,0.009,0.004,0.013,0.007c0.042,0.023,0.078,0.052,0.111,0.081
	c0.006,0.007,0.015,0.014,0.021,0.02c0.011,0.011,0.02,0.022,0.029,0.034c0.011,0.014,0.021,0.026,0.03,0.041
	c0.007,0.011,0.013,0.021,0.02,0.034c0.009,0.018,0.017,0.035,0.022,0.054c0.004,0.009,0.008,0.019,0.01,0.028
	c0.009,0.029,0.012,0.059,0.012,0.089c0,0.031-0.003,0.062-0.012,0.09c-0.002,0.01-0.006,0.019-0.01,0.029
	c-0.006,0.018-0.014,0.036-0.022,0.053c-0.007,0.013-0.013,0.023-0.02,0.034c-0.01,0.015-0.02,0.027-0.03,0.041
	c-0.01,0.012-0.019,0.023-0.029,0.035c-0.007,0.006-0.016,0.013-0.021,0.019c-0.033,0.03-0.069,0.057-0.111,0.081
	c-0.004,0.002-0.009,0.005-0.013,0.008c-0.023,0.013-0.049,0.024-0.075,0.035c-0.004,0.003-0.01,0.004-0.015,0.006
	c-0.027,0.011-0.057,0.02-0.085,0.028l0,0v0.148h0.938h0.275h0.166l0.413-0.41v-0.441l-0.413-0.411h-0.166h-0.275h-0.938V23.054z"/>
<path fill="#FFDE00" d="M24.465,13.834L24.465,13.834c0.028,0.009,0.058,0.019,0.085,0.028c0.005,0.003,0.011,0.004,0.015,0.007
	c0.026,0.011,0.052,0.021,0.075,0.035c0.004,0.003,0.009,0.004,0.013,0.007c0.042,0.023,0.078,0.052,0.111,0.081
	c0.006,0.007,0.015,0.014,0.021,0.02c0.011,0.011,0.02,0.022,0.029,0.034c0.011,0.014,0.021,0.026,0.03,0.041
	c0.007,0.011,0.013,0.021,0.02,0.034c0.009,0.018,0.017,0.035,0.022,0.054c0.004,0.009,0.008,0.019,0.01,0.028
	c0.009,0.029,0.012,0.059,0.012,0.089c0,0.031-0.003,0.062-0.012,0.09c-0.002,0.01-0.006,0.019-0.01,0.029
	c-0.006,0.018-0.014,0.036-0.022,0.053c-0.007,0.013-0.013,0.023-0.02,0.034c-0.01,0.015-0.02,0.027-0.03,0.041
	c-0.01,0.012-0.019,0.023-0.029,0.035c-0.007,0.006-0.016,0.013-0.021,0.019c-0.033,0.03-0.069,0.057-0.111,0.081
	c-0.004,0.002-0.009,0.005-0.013,0.008c-0.023,0.013-0.049,0.024-0.075,0.035c-0.004,0.003-0.01,0.004-0.015,0.006
	c-0.027,0.011-0.057,0.02-0.085,0.028l0,0V14.9h0.938h0.275h0.166l0.413-0.41v-0.442l-0.413-0.411h-0.166h-0.275h-0.938V13.834z"/>
<rect x="25.362" y="3.214" fill="#13424C" width="25.5" height="41.078"/>
<g>
	<path fill="#C7C6C6" d="M27.462,41.174c0,0.553,0.448,1,1,1h19.299c0.553,0,1-0.447,1-1V13.63c0-0.552-0.447-1-1-1H28.462
		c-0.552,0-1,0.448-1,1V41.174z"/>
</g>
<g>
	<g>
		<path fill="#B2B2B2" d="M25.979,8.182c0,0.276,0.224,0.5,0.5,0.5h2.581c0.277,0,0.5-0.224,0.5-0.5V5.028
			c0-0.276-0.223-0.5-0.5-0.5h-2.581c-0.276,0-0.5,0.224-0.5,0.5V8.182z"/>
	</g>
</g>
<g>
	<g>
		<path fill="#B2B2B2" d="M45.452,8.182c0,0.276,0.223,0.5,0.5,0.5h2.581c0.276,0,0.5-0.224,0.5-0.5V5.028
			c0-0.276-0.224-0.5-0.5-0.5h-2.581c-0.277,0-0.5,0.224-0.5,0.5V8.182z"/>
	</g>
</g>
<rect x="28.428" y="5.472" fill="#EAEAEA" width="18.156" height="2.267"/>
<g>
	<g>
		<path fill="#DADADA" d="M27.522,7.384c0,0.276,0.223,0.5,0.5,0.5h0.537c0.277,0,0.277-2.616,0-2.616h-0.537
			c-0.277,0-0.5,0.224-0.5,0.5V7.384z"/>
	</g>
	<g>
		<path fill="#DADADA" d="M46.452,8.001h0.537c0.277,0,0.5-0.224,0.5-0.5V5.885c0-0.276-0.223-0.5-0.5-0.5h-0.537
			C46.175,5.385,46.175,8.001,46.452,8.001z"/>
	</g>
</g>
</svg>
